%TF.GenerationSoftware,KiCad,Pcbnew,10.0.4*%
%TF.CreationDate,2026-08-13T18:31:45+05:30*%
%TF.ProjectId,Servo motor testor,53657276-6f20-46d6-9f74-6f7220746573,rev?*%
%TF.SameCoordinates,Original*%
%TF.FileFunction,Legend,Top*%
%TF.FilePolarity,Positive*%
%FSLAX46Y46*%
G04 Gerber Fmt 4.6, Leading zero omitted, Abs format (unit mm)*
G04 Created by KiCad (PCBNEW 10.0.4) date 2026-08-13 18:31:45*
%MOMM*%
%LPD*%
G01*
G04 APERTURE LIST*
%ADD10C,0.100000*%
%ADD11C,0.200000*%
%ADD12C,0.150000*%
%ADD13C,0.120000*%
G04 APERTURE END LIST*
D10*
X138327693Y-66920038D02*
X138232455Y-66872419D01*
X138232455Y-66872419D02*
X138089598Y-66872419D01*
X138089598Y-66872419D02*
X137946741Y-66920038D01*
X137946741Y-66920038D02*
X137851503Y-67015276D01*
X137851503Y-67015276D02*
X137803884Y-67110514D01*
X137803884Y-67110514D02*
X137756265Y-67300990D01*
X137756265Y-67300990D02*
X137756265Y-67443847D01*
X137756265Y-67443847D02*
X137803884Y-67634323D01*
X137803884Y-67634323D02*
X137851503Y-67729561D01*
X137851503Y-67729561D02*
X137946741Y-67824800D01*
X137946741Y-67824800D02*
X138089598Y-67872419D01*
X138089598Y-67872419D02*
X138184836Y-67872419D01*
X138184836Y-67872419D02*
X138327693Y-67824800D01*
X138327693Y-67824800D02*
X138375312Y-67777180D01*
X138375312Y-67777180D02*
X138375312Y-67443847D01*
X138375312Y-67443847D02*
X138184836Y-67443847D01*
X138803884Y-67872419D02*
X138803884Y-66872419D01*
X138803884Y-66872419D02*
X139375312Y-67872419D01*
X139375312Y-67872419D02*
X139375312Y-66872419D01*
X139851503Y-67872419D02*
X139851503Y-66872419D01*
X139851503Y-66872419D02*
X140089598Y-66872419D01*
X140089598Y-66872419D02*
X140232455Y-66920038D01*
X140232455Y-66920038D02*
X140327693Y-67015276D01*
X140327693Y-67015276D02*
X140375312Y-67110514D01*
X140375312Y-67110514D02*
X140422931Y-67300990D01*
X140422931Y-67300990D02*
X140422931Y-67443847D01*
X140422931Y-67443847D02*
X140375312Y-67634323D01*
X140375312Y-67634323D02*
X140327693Y-67729561D01*
X140327693Y-67729561D02*
X140232455Y-67824800D01*
X140232455Y-67824800D02*
X140089598Y-67872419D01*
X140089598Y-67872419D02*
X139851503Y-67872419D01*
X169256265Y-79324800D02*
X169399122Y-79372419D01*
X169399122Y-79372419D02*
X169637217Y-79372419D01*
X169637217Y-79372419D02*
X169732455Y-79324800D01*
X169732455Y-79324800D02*
X169780074Y-79277180D01*
X169780074Y-79277180D02*
X169827693Y-79181942D01*
X169827693Y-79181942D02*
X169827693Y-79086704D01*
X169827693Y-79086704D02*
X169780074Y-78991466D01*
X169780074Y-78991466D02*
X169732455Y-78943847D01*
X169732455Y-78943847D02*
X169637217Y-78896228D01*
X169637217Y-78896228D02*
X169446741Y-78848609D01*
X169446741Y-78848609D02*
X169351503Y-78800990D01*
X169351503Y-78800990D02*
X169303884Y-78753371D01*
X169303884Y-78753371D02*
X169256265Y-78658133D01*
X169256265Y-78658133D02*
X169256265Y-78562895D01*
X169256265Y-78562895D02*
X169303884Y-78467657D01*
X169303884Y-78467657D02*
X169351503Y-78420038D01*
X169351503Y-78420038D02*
X169446741Y-78372419D01*
X169446741Y-78372419D02*
X169684836Y-78372419D01*
X169684836Y-78372419D02*
X169827693Y-78420038D01*
X170256265Y-79372419D02*
X170256265Y-78372419D01*
X171256264Y-78420038D02*
X171161026Y-78372419D01*
X171161026Y-78372419D02*
X171018169Y-78372419D01*
X171018169Y-78372419D02*
X170875312Y-78420038D01*
X170875312Y-78420038D02*
X170780074Y-78515276D01*
X170780074Y-78515276D02*
X170732455Y-78610514D01*
X170732455Y-78610514D02*
X170684836Y-78800990D01*
X170684836Y-78800990D02*
X170684836Y-78943847D01*
X170684836Y-78943847D02*
X170732455Y-79134323D01*
X170732455Y-79134323D02*
X170780074Y-79229561D01*
X170780074Y-79229561D02*
X170875312Y-79324800D01*
X170875312Y-79324800D02*
X171018169Y-79372419D01*
X171018169Y-79372419D02*
X171113407Y-79372419D01*
X171113407Y-79372419D02*
X171256264Y-79324800D01*
X171256264Y-79324800D02*
X171303883Y-79277180D01*
X171303883Y-79277180D02*
X171303883Y-78943847D01*
X171303883Y-78943847D02*
X171113407Y-78943847D01*
X168827693Y-73420038D02*
X168732455Y-73372419D01*
X168732455Y-73372419D02*
X168589598Y-73372419D01*
X168589598Y-73372419D02*
X168446741Y-73420038D01*
X168446741Y-73420038D02*
X168351503Y-73515276D01*
X168351503Y-73515276D02*
X168303884Y-73610514D01*
X168303884Y-73610514D02*
X168256265Y-73800990D01*
X168256265Y-73800990D02*
X168256265Y-73943847D01*
X168256265Y-73943847D02*
X168303884Y-74134323D01*
X168303884Y-74134323D02*
X168351503Y-74229561D01*
X168351503Y-74229561D02*
X168446741Y-74324800D01*
X168446741Y-74324800D02*
X168589598Y-74372419D01*
X168589598Y-74372419D02*
X168684836Y-74372419D01*
X168684836Y-74372419D02*
X168827693Y-74324800D01*
X168827693Y-74324800D02*
X168875312Y-74277180D01*
X168875312Y-74277180D02*
X168875312Y-73943847D01*
X168875312Y-73943847D02*
X168684836Y-73943847D01*
X169303884Y-74372419D02*
X169303884Y-73372419D01*
X169303884Y-73372419D02*
X169875312Y-74372419D01*
X169875312Y-74372419D02*
X169875312Y-73372419D01*
X170351503Y-74372419D02*
X170351503Y-73372419D01*
X170351503Y-73372419D02*
X170589598Y-73372419D01*
X170589598Y-73372419D02*
X170732455Y-73420038D01*
X170732455Y-73420038D02*
X170827693Y-73515276D01*
X170827693Y-73515276D02*
X170875312Y-73610514D01*
X170875312Y-73610514D02*
X170922931Y-73800990D01*
X170922931Y-73800990D02*
X170922931Y-73943847D01*
X170922931Y-73943847D02*
X170875312Y-74134323D01*
X170875312Y-74134323D02*
X170827693Y-74229561D01*
X170827693Y-74229561D02*
X170732455Y-74324800D01*
X170732455Y-74324800D02*
X170589598Y-74372419D01*
X170589598Y-74372419D02*
X170351503Y-74372419D01*
X168661027Y-76372419D02*
X168994360Y-77372419D01*
X168994360Y-77372419D02*
X169327693Y-76372419D01*
X170232455Y-77277180D02*
X170184836Y-77324800D01*
X170184836Y-77324800D02*
X170041979Y-77372419D01*
X170041979Y-77372419D02*
X169946741Y-77372419D01*
X169946741Y-77372419D02*
X169803884Y-77324800D01*
X169803884Y-77324800D02*
X169708646Y-77229561D01*
X169708646Y-77229561D02*
X169661027Y-77134323D01*
X169661027Y-77134323D02*
X169613408Y-76943847D01*
X169613408Y-76943847D02*
X169613408Y-76800990D01*
X169613408Y-76800990D02*
X169661027Y-76610514D01*
X169661027Y-76610514D02*
X169708646Y-76515276D01*
X169708646Y-76515276D02*
X169803884Y-76420038D01*
X169803884Y-76420038D02*
X169946741Y-76372419D01*
X169946741Y-76372419D02*
X170041979Y-76372419D01*
X170041979Y-76372419D02*
X170184836Y-76420038D01*
X170184836Y-76420038D02*
X170232455Y-76467657D01*
X171232455Y-77277180D02*
X171184836Y-77324800D01*
X171184836Y-77324800D02*
X171041979Y-77372419D01*
X171041979Y-77372419D02*
X170946741Y-77372419D01*
X170946741Y-77372419D02*
X170803884Y-77324800D01*
X170803884Y-77324800D02*
X170708646Y-77229561D01*
X170708646Y-77229561D02*
X170661027Y-77134323D01*
X170661027Y-77134323D02*
X170613408Y-76943847D01*
X170613408Y-76943847D02*
X170613408Y-76800990D01*
X170613408Y-76800990D02*
X170661027Y-76610514D01*
X170661027Y-76610514D02*
X170708646Y-76515276D01*
X170708646Y-76515276D02*
X170803884Y-76420038D01*
X170803884Y-76420038D02*
X170946741Y-76372419D01*
X170946741Y-76372419D02*
X171041979Y-76372419D01*
X171041979Y-76372419D02*
X171184836Y-76420038D01*
X171184836Y-76420038D02*
X171232455Y-76467657D01*
D11*
X169819600Y-71757945D02*
X169867219Y-71615088D01*
X169867219Y-71615088D02*
X169867219Y-71376993D01*
X169867219Y-71376993D02*
X169819600Y-71281755D01*
X169819600Y-71281755D02*
X169771980Y-71234136D01*
X169771980Y-71234136D02*
X169676742Y-71186517D01*
X169676742Y-71186517D02*
X169581504Y-71186517D01*
X169581504Y-71186517D02*
X169486266Y-71234136D01*
X169486266Y-71234136D02*
X169438647Y-71281755D01*
X169438647Y-71281755D02*
X169391028Y-71376993D01*
X169391028Y-71376993D02*
X169343409Y-71567469D01*
X169343409Y-71567469D02*
X169295790Y-71662707D01*
X169295790Y-71662707D02*
X169248171Y-71710326D01*
X169248171Y-71710326D02*
X169152933Y-71757945D01*
X169152933Y-71757945D02*
X169057695Y-71757945D01*
X169057695Y-71757945D02*
X168962457Y-71710326D01*
X168962457Y-71710326D02*
X168914838Y-71662707D01*
X168914838Y-71662707D02*
X168867219Y-71567469D01*
X168867219Y-71567469D02*
X168867219Y-71329374D01*
X168867219Y-71329374D02*
X168914838Y-71186517D01*
X169819600Y-70376993D02*
X169867219Y-70472231D01*
X169867219Y-70472231D02*
X169867219Y-70662707D01*
X169867219Y-70662707D02*
X169819600Y-70757945D01*
X169819600Y-70757945D02*
X169724361Y-70805564D01*
X169724361Y-70805564D02*
X169343409Y-70805564D01*
X169343409Y-70805564D02*
X169248171Y-70757945D01*
X169248171Y-70757945D02*
X169200552Y-70662707D01*
X169200552Y-70662707D02*
X169200552Y-70472231D01*
X169200552Y-70472231D02*
X169248171Y-70376993D01*
X169248171Y-70376993D02*
X169343409Y-70329374D01*
X169343409Y-70329374D02*
X169438647Y-70329374D01*
X169438647Y-70329374D02*
X169533885Y-70805564D01*
X169867219Y-69900802D02*
X169200552Y-69900802D01*
X169391028Y-69900802D02*
X169295790Y-69853183D01*
X169295790Y-69853183D02*
X169248171Y-69805564D01*
X169248171Y-69805564D02*
X169200552Y-69710326D01*
X169200552Y-69710326D02*
X169200552Y-69615088D01*
X169200552Y-69376992D02*
X169867219Y-69138897D01*
X169867219Y-69138897D02*
X169200552Y-68900802D01*
X169867219Y-68376992D02*
X169819600Y-68472230D01*
X169819600Y-68472230D02*
X169771980Y-68519849D01*
X169771980Y-68519849D02*
X169676742Y-68567468D01*
X169676742Y-68567468D02*
X169391028Y-68567468D01*
X169391028Y-68567468D02*
X169295790Y-68519849D01*
X169295790Y-68519849D02*
X169248171Y-68472230D01*
X169248171Y-68472230D02*
X169200552Y-68376992D01*
X169200552Y-68376992D02*
X169200552Y-68234135D01*
X169200552Y-68234135D02*
X169248171Y-68138897D01*
X169248171Y-68138897D02*
X169295790Y-68091278D01*
X169295790Y-68091278D02*
X169391028Y-68043659D01*
X169391028Y-68043659D02*
X169676742Y-68043659D01*
X169676742Y-68043659D02*
X169771980Y-68091278D01*
X169771980Y-68091278D02*
X169819600Y-68138897D01*
X169819600Y-68138897D02*
X169867219Y-68234135D01*
X169867219Y-68234135D02*
X169867219Y-68376992D01*
X168867219Y-66996039D02*
X168867219Y-66424611D01*
X169867219Y-66710325D02*
X168867219Y-66710325D01*
X169819600Y-65710325D02*
X169867219Y-65805563D01*
X169867219Y-65805563D02*
X169867219Y-65996039D01*
X169867219Y-65996039D02*
X169819600Y-66091277D01*
X169819600Y-66091277D02*
X169724361Y-66138896D01*
X169724361Y-66138896D02*
X169343409Y-66138896D01*
X169343409Y-66138896D02*
X169248171Y-66091277D01*
X169248171Y-66091277D02*
X169200552Y-65996039D01*
X169200552Y-65996039D02*
X169200552Y-65805563D01*
X169200552Y-65805563D02*
X169248171Y-65710325D01*
X169248171Y-65710325D02*
X169343409Y-65662706D01*
X169343409Y-65662706D02*
X169438647Y-65662706D01*
X169438647Y-65662706D02*
X169533885Y-66138896D01*
X169819600Y-65281753D02*
X169867219Y-65186515D01*
X169867219Y-65186515D02*
X169867219Y-64996039D01*
X169867219Y-64996039D02*
X169819600Y-64900801D01*
X169819600Y-64900801D02*
X169724361Y-64853182D01*
X169724361Y-64853182D02*
X169676742Y-64853182D01*
X169676742Y-64853182D02*
X169581504Y-64900801D01*
X169581504Y-64900801D02*
X169533885Y-64996039D01*
X169533885Y-64996039D02*
X169533885Y-65138896D01*
X169533885Y-65138896D02*
X169486266Y-65234134D01*
X169486266Y-65234134D02*
X169391028Y-65281753D01*
X169391028Y-65281753D02*
X169343409Y-65281753D01*
X169343409Y-65281753D02*
X169248171Y-65234134D01*
X169248171Y-65234134D02*
X169200552Y-65138896D01*
X169200552Y-65138896D02*
X169200552Y-64996039D01*
X169200552Y-64996039D02*
X169248171Y-64900801D01*
X169200552Y-64567467D02*
X169200552Y-64186515D01*
X168867219Y-64424610D02*
X169724361Y-64424610D01*
X169724361Y-64424610D02*
X169819600Y-64376991D01*
X169819600Y-64376991D02*
X169867219Y-64281753D01*
X169867219Y-64281753D02*
X169867219Y-64186515D01*
X169867219Y-63710324D02*
X169819600Y-63805562D01*
X169819600Y-63805562D02*
X169771980Y-63853181D01*
X169771980Y-63853181D02*
X169676742Y-63900800D01*
X169676742Y-63900800D02*
X169391028Y-63900800D01*
X169391028Y-63900800D02*
X169295790Y-63853181D01*
X169295790Y-63853181D02*
X169248171Y-63805562D01*
X169248171Y-63805562D02*
X169200552Y-63710324D01*
X169200552Y-63710324D02*
X169200552Y-63567467D01*
X169200552Y-63567467D02*
X169248171Y-63472229D01*
X169248171Y-63472229D02*
X169295790Y-63424610D01*
X169295790Y-63424610D02*
X169391028Y-63376991D01*
X169391028Y-63376991D02*
X169676742Y-63376991D01*
X169676742Y-63376991D02*
X169771980Y-63424610D01*
X169771980Y-63424610D02*
X169819600Y-63472229D01*
X169819600Y-63472229D02*
X169867219Y-63567467D01*
X169867219Y-63567467D02*
X169867219Y-63710324D01*
X169867219Y-62948419D02*
X169200552Y-62948419D01*
X169391028Y-62948419D02*
X169295790Y-62900800D01*
X169295790Y-62900800D02*
X169248171Y-62853181D01*
X169248171Y-62853181D02*
X169200552Y-62757943D01*
X169200552Y-62757943D02*
X169200552Y-62662705D01*
X135869673Y-89367219D02*
X135869673Y-88367219D01*
X136441101Y-89367219D02*
X136012530Y-88795790D01*
X136441101Y-88367219D02*
X135869673Y-88938647D01*
X136869673Y-89367219D02*
X136869673Y-88367219D01*
X136869673Y-88843409D02*
X137441101Y-88843409D01*
X137441101Y-89367219D02*
X137441101Y-88367219D01*
X137917292Y-88367219D02*
X137917292Y-89176742D01*
X137917292Y-89176742D02*
X137964911Y-89271980D01*
X137964911Y-89271980D02*
X138012530Y-89319600D01*
X138012530Y-89319600D02*
X138107768Y-89367219D01*
X138107768Y-89367219D02*
X138298244Y-89367219D01*
X138298244Y-89367219D02*
X138393482Y-89319600D01*
X138393482Y-89319600D02*
X138441101Y-89271980D01*
X138441101Y-89271980D02*
X138488720Y-89176742D01*
X138488720Y-89176742D02*
X138488720Y-88367219D01*
X138917292Y-89319600D02*
X139060149Y-89367219D01*
X139060149Y-89367219D02*
X139298244Y-89367219D01*
X139298244Y-89367219D02*
X139393482Y-89319600D01*
X139393482Y-89319600D02*
X139441101Y-89271980D01*
X139441101Y-89271980D02*
X139488720Y-89176742D01*
X139488720Y-89176742D02*
X139488720Y-89081504D01*
X139488720Y-89081504D02*
X139441101Y-88986266D01*
X139441101Y-88986266D02*
X139393482Y-88938647D01*
X139393482Y-88938647D02*
X139298244Y-88891028D01*
X139298244Y-88891028D02*
X139107768Y-88843409D01*
X139107768Y-88843409D02*
X139012530Y-88795790D01*
X139012530Y-88795790D02*
X138964911Y-88748171D01*
X138964911Y-88748171D02*
X138917292Y-88652933D01*
X138917292Y-88652933D02*
X138917292Y-88557695D01*
X138917292Y-88557695D02*
X138964911Y-88462457D01*
X138964911Y-88462457D02*
X139012530Y-88414838D01*
X139012530Y-88414838D02*
X139107768Y-88367219D01*
X139107768Y-88367219D02*
X139345863Y-88367219D01*
X139345863Y-88367219D02*
X139488720Y-88414838D01*
X139917292Y-89367219D02*
X139917292Y-88367219D01*
X139917292Y-88843409D02*
X140488720Y-88843409D01*
X140488720Y-89367219D02*
X140488720Y-88367219D01*
X140964911Y-89367219D02*
X140964911Y-88367219D01*
D10*
X137661027Y-69872419D02*
X137994360Y-70872419D01*
X137994360Y-70872419D02*
X138327693Y-69872419D01*
X139232455Y-70777180D02*
X139184836Y-70824800D01*
X139184836Y-70824800D02*
X139041979Y-70872419D01*
X139041979Y-70872419D02*
X138946741Y-70872419D01*
X138946741Y-70872419D02*
X138803884Y-70824800D01*
X138803884Y-70824800D02*
X138708646Y-70729561D01*
X138708646Y-70729561D02*
X138661027Y-70634323D01*
X138661027Y-70634323D02*
X138613408Y-70443847D01*
X138613408Y-70443847D02*
X138613408Y-70300990D01*
X138613408Y-70300990D02*
X138661027Y-70110514D01*
X138661027Y-70110514D02*
X138708646Y-70015276D01*
X138708646Y-70015276D02*
X138803884Y-69920038D01*
X138803884Y-69920038D02*
X138946741Y-69872419D01*
X138946741Y-69872419D02*
X139041979Y-69872419D01*
X139041979Y-69872419D02*
X139184836Y-69920038D01*
X139184836Y-69920038D02*
X139232455Y-69967657D01*
X140232455Y-70777180D02*
X140184836Y-70824800D01*
X140184836Y-70824800D02*
X140041979Y-70872419D01*
X140041979Y-70872419D02*
X139946741Y-70872419D01*
X139946741Y-70872419D02*
X139803884Y-70824800D01*
X139803884Y-70824800D02*
X139708646Y-70729561D01*
X139708646Y-70729561D02*
X139661027Y-70634323D01*
X139661027Y-70634323D02*
X139613408Y-70443847D01*
X139613408Y-70443847D02*
X139613408Y-70300990D01*
X139613408Y-70300990D02*
X139661027Y-70110514D01*
X139661027Y-70110514D02*
X139708646Y-70015276D01*
X139708646Y-70015276D02*
X139803884Y-69920038D01*
X139803884Y-69920038D02*
X139946741Y-69872419D01*
X139946741Y-69872419D02*
X140041979Y-69872419D01*
X140041979Y-69872419D02*
X140184836Y-69920038D01*
X140184836Y-69920038D02*
X140232455Y-69967657D01*
D12*
X137491905Y-73494819D02*
X137491905Y-72494819D01*
X137491905Y-72494819D02*
X137730000Y-72494819D01*
X137730000Y-72494819D02*
X137872857Y-72542438D01*
X137872857Y-72542438D02*
X137968095Y-72637676D01*
X137968095Y-72637676D02*
X138015714Y-72732914D01*
X138015714Y-72732914D02*
X138063333Y-72923390D01*
X138063333Y-72923390D02*
X138063333Y-73066247D01*
X138063333Y-73066247D02*
X138015714Y-73256723D01*
X138015714Y-73256723D02*
X137968095Y-73351961D01*
X137968095Y-73351961D02*
X137872857Y-73447200D01*
X137872857Y-73447200D02*
X137730000Y-73494819D01*
X137730000Y-73494819D02*
X137491905Y-73494819D01*
X139015714Y-73494819D02*
X138444286Y-73494819D01*
X138730000Y-73494819D02*
X138730000Y-72494819D01*
X138730000Y-72494819D02*
X138634762Y-72637676D01*
X138634762Y-72637676D02*
X138539524Y-72732914D01*
X138539524Y-72732914D02*
X138444286Y-72780533D01*
X152928095Y-73544819D02*
X152928095Y-74354342D01*
X152928095Y-74354342D02*
X152975714Y-74449580D01*
X152975714Y-74449580D02*
X153023333Y-74497200D01*
X153023333Y-74497200D02*
X153118571Y-74544819D01*
X153118571Y-74544819D02*
X153309047Y-74544819D01*
X153309047Y-74544819D02*
X153404285Y-74497200D01*
X153404285Y-74497200D02*
X153451904Y-74449580D01*
X153451904Y-74449580D02*
X153499523Y-74354342D01*
X153499523Y-74354342D02*
X153499523Y-73544819D01*
X154499523Y-74544819D02*
X153928095Y-74544819D01*
X154213809Y-74544819D02*
X154213809Y-73544819D01*
X154213809Y-73544819D02*
X154118571Y-73687676D01*
X154118571Y-73687676D02*
X154023333Y-73782914D01*
X154023333Y-73782914D02*
X153928095Y-73830533D01*
X176666666Y-71644819D02*
X176666666Y-72359104D01*
X176666666Y-72359104D02*
X176619047Y-72501961D01*
X176619047Y-72501961D02*
X176523809Y-72597200D01*
X176523809Y-72597200D02*
X176380952Y-72644819D01*
X176380952Y-72644819D02*
X176285714Y-72644819D01*
X177095238Y-71740057D02*
X177142857Y-71692438D01*
X177142857Y-71692438D02*
X177238095Y-71644819D01*
X177238095Y-71644819D02*
X177476190Y-71644819D01*
X177476190Y-71644819D02*
X177571428Y-71692438D01*
X177571428Y-71692438D02*
X177619047Y-71740057D01*
X177619047Y-71740057D02*
X177666666Y-71835295D01*
X177666666Y-71835295D02*
X177666666Y-71930533D01*
X177666666Y-71930533D02*
X177619047Y-72073390D01*
X177619047Y-72073390D02*
X177047619Y-72644819D01*
X177047619Y-72644819D02*
X177666666Y-72644819D01*
X151833333Y-91874819D02*
X151500000Y-91398628D01*
X151261905Y-91874819D02*
X151261905Y-90874819D01*
X151261905Y-90874819D02*
X151642857Y-90874819D01*
X151642857Y-90874819D02*
X151738095Y-90922438D01*
X151738095Y-90922438D02*
X151785714Y-90970057D01*
X151785714Y-90970057D02*
X151833333Y-91065295D01*
X151833333Y-91065295D02*
X151833333Y-91208152D01*
X151833333Y-91208152D02*
X151785714Y-91303390D01*
X151785714Y-91303390D02*
X151738095Y-91351009D01*
X151738095Y-91351009D02*
X151642857Y-91398628D01*
X151642857Y-91398628D02*
X151261905Y-91398628D01*
X152785714Y-91874819D02*
X152214286Y-91874819D01*
X152500000Y-91874819D02*
X152500000Y-90874819D01*
X152500000Y-90874819D02*
X152404762Y-91017676D01*
X152404762Y-91017676D02*
X152309524Y-91112914D01*
X152309524Y-91112914D02*
X152214286Y-91160533D01*
X145254819Y-64095238D02*
X144778628Y-64428571D01*
X145254819Y-64666666D02*
X144254819Y-64666666D01*
X144254819Y-64666666D02*
X144254819Y-64285714D01*
X144254819Y-64285714D02*
X144302438Y-64190476D01*
X144302438Y-64190476D02*
X144350057Y-64142857D01*
X144350057Y-64142857D02*
X144445295Y-64095238D01*
X144445295Y-64095238D02*
X144588152Y-64095238D01*
X144588152Y-64095238D02*
X144683390Y-64142857D01*
X144683390Y-64142857D02*
X144731009Y-64190476D01*
X144731009Y-64190476D02*
X144778628Y-64285714D01*
X144778628Y-64285714D02*
X144778628Y-64666666D01*
X144254819Y-63809523D02*
X145254819Y-63476190D01*
X145254819Y-63476190D02*
X144254819Y-63142857D01*
X145254819Y-62285714D02*
X145254819Y-62857142D01*
X145254819Y-62571428D02*
X144254819Y-62571428D01*
X144254819Y-62571428D02*
X144397676Y-62666666D01*
X144397676Y-62666666D02*
X144492914Y-62761904D01*
X144492914Y-62761904D02*
X144540533Y-62857142D01*
X164143333Y-75374819D02*
X163810000Y-74898628D01*
X163571905Y-75374819D02*
X163571905Y-74374819D01*
X163571905Y-74374819D02*
X163952857Y-74374819D01*
X163952857Y-74374819D02*
X164048095Y-74422438D01*
X164048095Y-74422438D02*
X164095714Y-74470057D01*
X164095714Y-74470057D02*
X164143333Y-74565295D01*
X164143333Y-74565295D02*
X164143333Y-74708152D01*
X164143333Y-74708152D02*
X164095714Y-74803390D01*
X164095714Y-74803390D02*
X164048095Y-74851009D01*
X164048095Y-74851009D02*
X163952857Y-74898628D01*
X163952857Y-74898628D02*
X163571905Y-74898628D01*
X164476667Y-74374819D02*
X165095714Y-74374819D01*
X165095714Y-74374819D02*
X164762381Y-74755771D01*
X164762381Y-74755771D02*
X164905238Y-74755771D01*
X164905238Y-74755771D02*
X165000476Y-74803390D01*
X165000476Y-74803390D02*
X165048095Y-74851009D01*
X165048095Y-74851009D02*
X165095714Y-74946247D01*
X165095714Y-74946247D02*
X165095714Y-75184342D01*
X165095714Y-75184342D02*
X165048095Y-75279580D01*
X165048095Y-75279580D02*
X165000476Y-75327200D01*
X165000476Y-75327200D02*
X164905238Y-75374819D01*
X164905238Y-75374819D02*
X164619524Y-75374819D01*
X164619524Y-75374819D02*
X164524286Y-75327200D01*
X164524286Y-75327200D02*
X164476667Y-75279580D01*
X146074819Y-81548094D02*
X145074819Y-81548094D01*
X145074819Y-81548094D02*
X145074819Y-81309999D01*
X145074819Y-81309999D02*
X145122438Y-81167142D01*
X145122438Y-81167142D02*
X145217676Y-81071904D01*
X145217676Y-81071904D02*
X145312914Y-81024285D01*
X145312914Y-81024285D02*
X145503390Y-80976666D01*
X145503390Y-80976666D02*
X145646247Y-80976666D01*
X145646247Y-80976666D02*
X145836723Y-81024285D01*
X145836723Y-81024285D02*
X145931961Y-81071904D01*
X145931961Y-81071904D02*
X146027200Y-81167142D01*
X146027200Y-81167142D02*
X146074819Y-81309999D01*
X146074819Y-81309999D02*
X146074819Y-81548094D01*
X145170057Y-80595713D02*
X145122438Y-80548094D01*
X145122438Y-80548094D02*
X145074819Y-80452856D01*
X145074819Y-80452856D02*
X145074819Y-80214761D01*
X145074819Y-80214761D02*
X145122438Y-80119523D01*
X145122438Y-80119523D02*
X145170057Y-80071904D01*
X145170057Y-80071904D02*
X145265295Y-80024285D01*
X145265295Y-80024285D02*
X145360533Y-80024285D01*
X145360533Y-80024285D02*
X145503390Y-80071904D01*
X145503390Y-80071904D02*
X146074819Y-80643332D01*
X146074819Y-80643332D02*
X146074819Y-80024285D01*
X145754819Y-77261904D02*
X144754819Y-77261904D01*
X145754819Y-76690476D02*
X145183390Y-77119047D01*
X144754819Y-76690476D02*
X145326247Y-77261904D01*
X144454819Y-66666666D02*
X143978628Y-66999999D01*
X144454819Y-67238094D02*
X143454819Y-67238094D01*
X143454819Y-67238094D02*
X143454819Y-66857142D01*
X143454819Y-66857142D02*
X143502438Y-66761904D01*
X143502438Y-66761904D02*
X143550057Y-66714285D01*
X143550057Y-66714285D02*
X143645295Y-66666666D01*
X143645295Y-66666666D02*
X143788152Y-66666666D01*
X143788152Y-66666666D02*
X143883390Y-66714285D01*
X143883390Y-66714285D02*
X143931009Y-66761904D01*
X143931009Y-66761904D02*
X143978628Y-66857142D01*
X143978628Y-66857142D02*
X143978628Y-67238094D01*
X143550057Y-66285713D02*
X143502438Y-66238094D01*
X143502438Y-66238094D02*
X143454819Y-66142856D01*
X143454819Y-66142856D02*
X143454819Y-65904761D01*
X143454819Y-65904761D02*
X143502438Y-65809523D01*
X143502438Y-65809523D02*
X143550057Y-65761904D01*
X143550057Y-65761904D02*
X143645295Y-65714285D01*
X143645295Y-65714285D02*
X143740533Y-65714285D01*
X143740533Y-65714285D02*
X143883390Y-65761904D01*
X143883390Y-65761904D02*
X144454819Y-66333332D01*
X144454819Y-66333332D02*
X144454819Y-65714285D01*
X135166666Y-64454819D02*
X135166666Y-65169104D01*
X135166666Y-65169104D02*
X135119047Y-65311961D01*
X135119047Y-65311961D02*
X135023809Y-65407200D01*
X135023809Y-65407200D02*
X134880952Y-65454819D01*
X134880952Y-65454819D02*
X134785714Y-65454819D01*
X136166666Y-65454819D02*
X135595238Y-65454819D01*
X135880952Y-65454819D02*
X135880952Y-64454819D01*
X135880952Y-64454819D02*
X135785714Y-64597676D01*
X135785714Y-64597676D02*
X135690476Y-64692914D01*
X135690476Y-64692914D02*
X135595238Y-64740533D01*
X160109580Y-88166666D02*
X160157200Y-88214285D01*
X160157200Y-88214285D02*
X160204819Y-88357142D01*
X160204819Y-88357142D02*
X160204819Y-88452380D01*
X160204819Y-88452380D02*
X160157200Y-88595237D01*
X160157200Y-88595237D02*
X160061961Y-88690475D01*
X160061961Y-88690475D02*
X159966723Y-88738094D01*
X159966723Y-88738094D02*
X159776247Y-88785713D01*
X159776247Y-88785713D02*
X159633390Y-88785713D01*
X159633390Y-88785713D02*
X159442914Y-88738094D01*
X159442914Y-88738094D02*
X159347676Y-88690475D01*
X159347676Y-88690475D02*
X159252438Y-88595237D01*
X159252438Y-88595237D02*
X159204819Y-88452380D01*
X159204819Y-88452380D02*
X159204819Y-88357142D01*
X159204819Y-88357142D02*
X159252438Y-88214285D01*
X159252438Y-88214285D02*
X159300057Y-88166666D01*
X160204819Y-87214285D02*
X160204819Y-87785713D01*
X160204819Y-87499999D02*
X159204819Y-87499999D01*
X159204819Y-87499999D02*
X159347676Y-87595237D01*
X159347676Y-87595237D02*
X159442914Y-87690475D01*
X159442914Y-87690475D02*
X159490533Y-87785713D01*
%TO.C,D1*%
D13*
X135670000Y-75455000D02*
X135670000Y-78545000D01*
X135670000Y-75455170D02*
G75*
G02*
X141220000Y-77000000I2560000J-1544830D01*
G01*
X141220000Y-77000000D02*
G75*
G02*
X135670000Y-78544830I-2990000J0D01*
G01*
X140730000Y-77000000D02*
G75*
G02*
X135730000Y-77000000I-2500000J0D01*
G01*
X135730000Y-77000000D02*
G75*
G02*
X140730000Y-77000000I2500000J0D01*
G01*
%TO.C,U1*%
X151040000Y-75090000D02*
X151040000Y-85370000D01*
X151040000Y-85370000D02*
X156340000Y-85370000D01*
X152690000Y-75090000D02*
X151040000Y-75090000D01*
X156340000Y-75090000D02*
X154690000Y-75090000D01*
X156340000Y-85370000D02*
X156340000Y-75090000D01*
X154690000Y-75090000D02*
G75*
G02*
X152690000Y-75090000I-1000000J0D01*
G01*
%TO.C,J2*%
X171345000Y-73190000D02*
X172615000Y-73190000D01*
X171345000Y-74460000D02*
X171345000Y-73190000D01*
X173692358Y-76570000D02*
X174005000Y-76570000D01*
X173692358Y-77430000D02*
X174005000Y-77430000D01*
X173692358Y-79110000D02*
X174005000Y-79110000D01*
X173692358Y-79970000D02*
X174005000Y-79970000D01*
X173775000Y-74030000D02*
X174005000Y-74030000D01*
X173775000Y-74890000D02*
X174005000Y-74890000D01*
X174005000Y-73080000D02*
X174005000Y-80920000D01*
X174005000Y-75730000D02*
X176765000Y-75730000D01*
X174005000Y-78270000D02*
X176765000Y-78270000D01*
X174005000Y-80920000D02*
X176765000Y-80920000D01*
X176765000Y-73080000D02*
X174005000Y-73080000D01*
X176765000Y-76570000D02*
X182765000Y-76570000D01*
X176765000Y-79110000D02*
X182765000Y-79110000D01*
X176765000Y-80920000D02*
X176765000Y-73080000D01*
X182765000Y-76570000D02*
X182765000Y-77430000D01*
X182765000Y-77430000D02*
X176765000Y-77430000D01*
X182765000Y-79110000D02*
X182765000Y-79970000D01*
X182765000Y-79970000D02*
X176765000Y-79970000D01*
X176765000Y-74030000D02*
X182765000Y-74030000D01*
X182765000Y-74890000D01*
X176765000Y-74890000D01*
X176765000Y-74030000D01*
G36*
X176765000Y-74030000D02*
G01*
X182765000Y-74030000D01*
X182765000Y-74890000D01*
X176765000Y-74890000D01*
X176765000Y-74030000D01*
G37*
%TO.C,R1*%
X149130000Y-89500000D02*
X150080000Y-89500000D01*
X154870000Y-89500000D02*
X153920000Y-89500000D01*
X150080000Y-88580000D02*
X153920000Y-88580000D01*
X153920000Y-90420000D01*
X150080000Y-90420000D01*
X150080000Y-88580000D01*
%TO.C,RV1*%
X145930000Y-59580000D02*
X164070000Y-59580000D01*
X145930000Y-70320000D02*
X145930000Y-59580000D01*
X145930000Y-70320000D02*
X164070000Y-70320000D01*
X151380000Y-54580000D02*
X158620000Y-54580000D01*
X151380000Y-59580000D02*
X151380000Y-54580000D01*
X151880000Y-44580000D02*
X158120000Y-44580000D01*
X151880000Y-54580000D02*
X151880000Y-44580000D01*
X158120000Y-54580000D02*
X158120000Y-44580000D01*
X158620000Y-59580000D02*
X158620000Y-54580000D01*
X164070000Y-70320000D02*
X164070000Y-59580000D01*
%TO.C,R3*%
X161440000Y-73000000D02*
X162390000Y-73000000D01*
X167180000Y-73000000D02*
X166230000Y-73000000D01*
X162390000Y-72080000D02*
X166230000Y-72080000D01*
X166230000Y-73920000D01*
X162390000Y-73920000D01*
X162390000Y-72080000D01*
%TO.C,D2*%
X143500000Y-78040000D02*
X143500000Y-78690000D01*
X143500000Y-83580000D02*
X143500000Y-82930000D01*
X144620000Y-79290000D02*
X142380000Y-79290000D01*
X144620000Y-79410000D02*
X142380000Y-79410000D01*
X144620000Y-79530000D02*
X142380000Y-79530000D01*
X142380000Y-78690000D02*
X144620000Y-78690000D01*
X144620000Y-82930000D01*
X142380000Y-82930000D01*
X142380000Y-78690000D01*
%TO.C,R2*%
X141500000Y-63630000D02*
X141500000Y-64580000D01*
X141500000Y-69370000D02*
X141500000Y-68420000D01*
X140580000Y-64580000D02*
X142420000Y-64580000D01*
X142420000Y-68420000D01*
X140580000Y-68420000D01*
X140580000Y-64580000D01*
%TO.C,J1*%
X125350000Y-67030000D02*
X131350000Y-67030000D01*
X125350000Y-67890000D02*
X125350000Y-67030000D01*
X131350000Y-66080000D02*
X131350000Y-71380000D01*
X131350000Y-67890000D02*
X125350000Y-67890000D01*
X131350000Y-71380000D02*
X134110000Y-71380000D01*
X134110000Y-66080000D02*
X131350000Y-66080000D01*
X134110000Y-68730000D02*
X131350000Y-68730000D01*
X134110000Y-71380000D02*
X134110000Y-66080000D01*
X134340000Y-69570000D02*
X134110000Y-69570000D01*
X134340000Y-70430000D02*
X134110000Y-70430000D01*
X134422642Y-67030000D02*
X134110000Y-67030000D01*
X134422642Y-67890000D02*
X134110000Y-67890000D01*
X136770000Y-70000000D02*
X136770000Y-71270000D01*
X136770000Y-71270000D02*
X135500000Y-71270000D01*
X125350000Y-69570000D02*
X131350000Y-69570000D01*
X131350000Y-70430000D01*
X125350000Y-70430000D01*
X125350000Y-69570000D01*
G36*
X125350000Y-69570000D02*
G01*
X131350000Y-69570000D01*
X131350000Y-70430000D01*
X125350000Y-70430000D01*
X125350000Y-69570000D01*
G37*
%TO.C,C1*%
X160880000Y-83380000D02*
X162616000Y-83380000D01*
X160880000Y-92620000D02*
X160880000Y-83380000D01*
X162616000Y-92620000D02*
X160880000Y-92620000D01*
X164384000Y-83380000D02*
X166120000Y-83380000D01*
X166120000Y-83380000D02*
X166120000Y-92620000D01*
X166120000Y-92620000D02*
X164384000Y-92620000D01*
%TD*%
M02*
