%TF.GenerationSoftware,KiCad,Pcbnew,10.0.4*%
%TF.CreationDate,2026-08-13T18:31:45+05:30*%
%TF.ProjectId,Servo motor testor,53657276-6f20-46d6-9f74-6f7220746573,rev?*%
%TF.SameCoordinates,Original*%
%TF.FileFunction,Copper,L1,Top*%
%TF.FilePolarity,Positive*%
%FSLAX46Y46*%
G04 Gerber Fmt 4.6, Leading zero omitted, Abs format (unit mm)*
G04 Created by KiCad (PCBNEW 10.0.4) date 2026-08-13 18:31:45*
%MOMM*%
%LPD*%
G01*
G04 APERTURE LIST*
G04 Aperture macros list*
%AMRoundRect*
0 Rectangle with rounded corners*
0 $1 Rounding radius*
0 $2 $3 $4 $5 $6 $7 $8 $9 X,Y pos of 4 corners*
0 Add a 4 corners polygon primitive as box body*
4,1,4,$2,$3,$4,$5,$6,$7,$8,$9,$2,$3,0*
0 Add four circle primitives for the rounded corners*
1,1,$1+$1,$2,$3*
1,1,$1+$1,$4,$5*
1,1,$1+$1,$6,$7*
1,1,$1+$1,$8,$9*
0 Add four rect primitives between the rounded corners*
20,1,$1+$1,$2,$3,$4,$5,0*
20,1,$1+$1,$4,$5,$6,$7,0*
20,1,$1+$1,$6,$7,$8,$9,0*
20,1,$1+$1,$8,$9,$2,$3,0*%
G04 Aperture macros list end*
%TA.AperFunction,ComponentPad*%
%ADD10R,1.800000X1.800000*%
%TD*%
%TA.AperFunction,ComponentPad*%
%ADD11C,1.800000*%
%TD*%
%TA.AperFunction,ComponentPad*%
%ADD12RoundRect,0.250000X-0.550000X-0.550000X0.550000X-0.550000X0.550000X0.550000X-0.550000X0.550000X0*%
%TD*%
%TA.AperFunction,ComponentPad*%
%ADD13C,1.600000*%
%TD*%
%TA.AperFunction,ComponentPad*%
%ADD14R,1.700000X1.700000*%
%TD*%
%TA.AperFunction,ComponentPad*%
%ADD15C,1.700000*%
%TD*%
%TA.AperFunction,ComponentPad*%
%ADD16C,1.400000*%
%TD*%
%TA.AperFunction,ComponentPad*%
%ADD17R,3.000000X3.000000*%
%TD*%
%TA.AperFunction,ComponentPad*%
%ADD18C,3.000000*%
%TD*%
%TA.AperFunction,ComponentPad*%
%ADD19RoundRect,0.250000X-0.550000X0.550000X-0.550000X-0.550000X0.550000X-0.550000X0.550000X0.550000X0*%
%TD*%
%TA.AperFunction,ComponentPad*%
%ADD20C,2.000000*%
%TD*%
%TA.AperFunction,Conductor*%
%ADD21C,0.500000*%
%TD*%
G04 APERTURE END LIST*
D10*
%TO.P,D1,1,K*%
%TO.N,GND*%
X136960000Y-77000000D03*
D11*
%TO.P,D1,2,A*%
%TO.N,Net-(D1-A)*%
X139500000Y-77000000D03*
%TD*%
D12*
%TO.P,U1,1,GND*%
%TO.N,GND*%
X149880000Y-76420000D03*
D13*
%TO.P,U1,2,TR*%
%TO.N,Net-(D2-K)*%
X149880000Y-78960000D03*
%TO.P,U1,3,Q*%
%TO.N,/SIG*%
X149880000Y-81500000D03*
%TO.P,U1,4,R*%
%TO.N,/VCC*%
X149880000Y-84040000D03*
%TO.P,U1,5,CV*%
%TO.N,unconnected-(U1-CV-Pad5)*%
X157500000Y-84040000D03*
%TO.P,U1,6,THR*%
%TO.N,Net-(D2-K)*%
X157500000Y-81500000D03*
%TO.P,U1,7,DIS*%
%TO.N,Net-(D2-A)*%
X157500000Y-78960000D03*
%TO.P,U1,8,VCC*%
%TO.N,/VCC*%
X157500000Y-76420000D03*
%TD*%
D14*
%TO.P,J2,1,Pin_1*%
%TO.N,GND*%
X172615000Y-74460000D03*
D15*
%TO.P,J2,2,Pin_2*%
%TO.N,/VCC*%
X172615000Y-77000000D03*
%TO.P,J2,3,Pin_3*%
%TO.N,/SIG*%
X172615000Y-79540000D03*
%TD*%
D16*
%TO.P,R1,1*%
%TO.N,/VCC*%
X155810000Y-89500000D03*
%TO.P,R1,2*%
%TO.N,Net-(D1-A)*%
X148190000Y-89500000D03*
%TD*%
D17*
%TO.P,RV1,1,1*%
%TO.N,Net-(R3-Pad1)*%
X160000000Y-63500000D03*
D18*
%TO.P,RV1,2,2*%
%TO.N,Net-(D2-A)*%
X155000000Y-63500000D03*
%TO.P,RV1,3,3*%
X150000000Y-63500000D03*
%TD*%
D16*
%TO.P,R3,1*%
%TO.N,Net-(R3-Pad1)*%
X168120000Y-73000000D03*
%TO.P,R3,2*%
%TO.N,/VCC*%
X160500000Y-73000000D03*
%TD*%
D19*
%TO.P,D2,1,K*%
%TO.N,Net-(D2-K)*%
X143500000Y-77000000D03*
D13*
%TO.P,D2,2,A*%
%TO.N,Net-(D2-A)*%
X143500000Y-84620000D03*
%TD*%
D16*
%TO.P,R2,1*%
%TO.N,Net-(D2-A)*%
X141500000Y-70310000D03*
%TO.P,R2,2*%
%TO.N,Net-(D2-K)*%
X141500000Y-62690000D03*
%TD*%
D14*
%TO.P,J1,1,Pin_1*%
%TO.N,/VCC*%
X135500000Y-70000000D03*
D15*
%TO.P,J1,2,Pin_2*%
%TO.N,GND*%
X135500000Y-67460000D03*
%TD*%
D20*
%TO.P,C1,1*%
%TO.N,Net-(D2-K)*%
X163500000Y-91750000D03*
%TO.P,C1,2*%
%TO.N,GND*%
X163500000Y-84250000D03*
%TD*%
%TO.N,Net-(D2-K)*%
D21*
X146000000Y-82840000D02*
X149880000Y-78960000D01*
X163500000Y-91750000D02*
X152750000Y-91750000D01*
X152750000Y-91750000D02*
X146000000Y-85000000D01*
X146000000Y-85000000D02*
X146000000Y-82840000D01*
%TO.N,/VCC*%
X155340000Y-89500000D02*
X155810000Y-89500000D01*
X149880000Y-84040000D02*
X155340000Y-89500000D01*
%TO.N,/SIG*%
X172615000Y-79540000D02*
X171944000Y-80211000D01*
X171944000Y-80211000D02*
X151169000Y-80211000D01*
X151169000Y-80211000D02*
X149880000Y-81500000D01*
%TD*%
%TA.AperFunction,Conductor*%
%TO.N,GND*%
G36*
X170559362Y-60520185D02*
G01*
X170605117Y-60572989D01*
X170615061Y-60642147D01*
X170586036Y-60705703D01*
X170580004Y-60712181D01*
X170557357Y-60734827D01*
X170557351Y-60734834D01*
X170404561Y-60933955D01*
X170279064Y-61151319D01*
X170279059Y-61151330D01*
X170183011Y-61383210D01*
X170118047Y-61625659D01*
X170085286Y-61874495D01*
X170085286Y-62125504D01*
X170103683Y-62265237D01*
X170118048Y-62374344D01*
X170150529Y-62495564D01*
X170183011Y-62616789D01*
X170279059Y-62848669D01*
X170279064Y-62848680D01*
X170314072Y-62909314D01*
X170404558Y-63066040D01*
X170404560Y-63066043D01*
X170404561Y-63066044D01*
X170557351Y-63265165D01*
X170557357Y-63265172D01*
X170734827Y-63442642D01*
X170734833Y-63442647D01*
X170933960Y-63595442D01*
X171073661Y-63676099D01*
X171151319Y-63720935D01*
X171151324Y-63720937D01*
X171151327Y-63720939D01*
X171383215Y-63816990D01*
X171625656Y-63881952D01*
X171874503Y-63914714D01*
X171874510Y-63914714D01*
X172125490Y-63914714D01*
X172125497Y-63914714D01*
X172374344Y-63881952D01*
X172616785Y-63816990D01*
X172848673Y-63720939D01*
X173066040Y-63595442D01*
X173265167Y-63442647D01*
X173274447Y-63433367D01*
X173287819Y-63419996D01*
X173349142Y-63386511D01*
X173418834Y-63391495D01*
X173474767Y-63433367D01*
X173499184Y-63498831D01*
X173499500Y-63507677D01*
X173499500Y-72986000D01*
X173479815Y-73053039D01*
X173427011Y-73098794D01*
X173375500Y-73110000D01*
X172865000Y-73110000D01*
X172865000Y-74026988D01*
X172807993Y-73994075D01*
X172680826Y-73960000D01*
X172549174Y-73960000D01*
X172422007Y-73994075D01*
X172365000Y-74026988D01*
X172365000Y-73110000D01*
X171717155Y-73110000D01*
X171657627Y-73116401D01*
X171657620Y-73116403D01*
X171522913Y-73166645D01*
X171522906Y-73166649D01*
X171407812Y-73252809D01*
X171407809Y-73252812D01*
X171321649Y-73367906D01*
X171321645Y-73367913D01*
X171271403Y-73502620D01*
X171271401Y-73502627D01*
X171265000Y-73562155D01*
X171265000Y-74210000D01*
X172181988Y-74210000D01*
X172149075Y-74267007D01*
X172115000Y-74394174D01*
X172115000Y-74525826D01*
X172149075Y-74652993D01*
X172181988Y-74710000D01*
X171265000Y-74710000D01*
X171265000Y-75357844D01*
X171271401Y-75417372D01*
X171271403Y-75417379D01*
X171321645Y-75552086D01*
X171321649Y-75552093D01*
X171407809Y-75667187D01*
X171407812Y-75667190D01*
X171522906Y-75753350D01*
X171522913Y-75753354D01*
X171654470Y-75802422D01*
X171710404Y-75844293D01*
X171734821Y-75909758D01*
X171719969Y-75978031D01*
X171698819Y-76006285D01*
X171584889Y-76120215D01*
X171459951Y-76292179D01*
X171363444Y-76481585D01*
X171297753Y-76683760D01*
X171264500Y-76893713D01*
X171264500Y-77106286D01*
X171293458Y-77289124D01*
X171297754Y-77316243D01*
X171341214Y-77450000D01*
X171363444Y-77518414D01*
X171459951Y-77707820D01*
X171584890Y-77879786D01*
X171735213Y-78030109D01*
X171907182Y-78155050D01*
X171915946Y-78159516D01*
X171966742Y-78207491D01*
X171983536Y-78275312D01*
X171960998Y-78341447D01*
X171915946Y-78380484D01*
X171907182Y-78384949D01*
X171735213Y-78509890D01*
X171584890Y-78660213D01*
X171459951Y-78832179D01*
X171363444Y-79021585D01*
X171297753Y-79223759D01*
X171276825Y-79355898D01*
X171246896Y-79419032D01*
X171187585Y-79455964D01*
X171154352Y-79460500D01*
X158875476Y-79460500D01*
X158808437Y-79440815D01*
X158762682Y-79388011D01*
X158752738Y-79318853D01*
X158757545Y-79298183D01*
X158768475Y-79264542D01*
X158768475Y-79264538D01*
X158768477Y-79264534D01*
X158800500Y-79062352D01*
X158800500Y-78857648D01*
X158768477Y-78655466D01*
X158705220Y-78460781D01*
X158705218Y-78460778D01*
X158705218Y-78460776D01*
X158666582Y-78384949D01*
X158612287Y-78278390D01*
X158604556Y-78267749D01*
X158491971Y-78112786D01*
X158347213Y-77968028D01*
X158181614Y-77847715D01*
X158174884Y-77844286D01*
X158088917Y-77800483D01*
X158038123Y-77752511D01*
X158021328Y-77684690D01*
X158043865Y-77618555D01*
X158088917Y-77579516D01*
X158181610Y-77532287D01*
X158202770Y-77516913D01*
X158347213Y-77411971D01*
X158347215Y-77411968D01*
X158347219Y-77411966D01*
X158491966Y-77267219D01*
X158491968Y-77267215D01*
X158491971Y-77267213D01*
X158559915Y-77173694D01*
X158612287Y-77101610D01*
X158705220Y-76919219D01*
X158768477Y-76724534D01*
X158800500Y-76522352D01*
X158800500Y-76317648D01*
X158792257Y-76265606D01*
X158768477Y-76115465D01*
X158724897Y-75981342D01*
X158705220Y-75920781D01*
X158705218Y-75920778D01*
X158705218Y-75920776D01*
X158666247Y-75844293D01*
X158612287Y-75738390D01*
X158596966Y-75717302D01*
X158491971Y-75572786D01*
X158347213Y-75428028D01*
X158181613Y-75307715D01*
X158181612Y-75307714D01*
X158181610Y-75307713D01*
X158122675Y-75277684D01*
X157999223Y-75214781D01*
X157804534Y-75151522D01*
X157629995Y-75123878D01*
X157602352Y-75119500D01*
X157397648Y-75119500D01*
X157373329Y-75123351D01*
X157195465Y-75151522D01*
X157000776Y-75214781D01*
X156818386Y-75307715D01*
X156652786Y-75428028D01*
X156508028Y-75572786D01*
X156387715Y-75738386D01*
X156294781Y-75920776D01*
X156231522Y-76115465D01*
X156199500Y-76317648D01*
X156199500Y-76522351D01*
X156231522Y-76724534D01*
X156294781Y-76919223D01*
X156346117Y-77019973D01*
X156366126Y-77059244D01*
X156387715Y-77101613D01*
X156508028Y-77267213D01*
X156652786Y-77411971D01*
X156799295Y-77518414D01*
X156818390Y-77532287D01*
X156909840Y-77578883D01*
X156911080Y-77579515D01*
X156961876Y-77627490D01*
X156978671Y-77695311D01*
X156956134Y-77761446D01*
X156911080Y-77800485D01*
X156818386Y-77847715D01*
X156652786Y-77968028D01*
X156508028Y-78112786D01*
X156387715Y-78278386D01*
X156294781Y-78460776D01*
X156231522Y-78655465D01*
X156199500Y-78857648D01*
X156199500Y-79062351D01*
X156231523Y-79264535D01*
X156231524Y-79264542D01*
X156242455Y-79298183D01*
X156244450Y-79368024D01*
X156208369Y-79427856D01*
X156145668Y-79458684D01*
X156124524Y-79460500D01*
X151255476Y-79460500D01*
X151188437Y-79440815D01*
X151142682Y-79388011D01*
X151132738Y-79318853D01*
X151137545Y-79298183D01*
X151148475Y-79264542D01*
X151148475Y-79264538D01*
X151148477Y-79264534D01*
X151180500Y-79062352D01*
X151180500Y-78857648D01*
X151148477Y-78655466D01*
X151085220Y-78460781D01*
X151085218Y-78460778D01*
X151085218Y-78460776D01*
X151046582Y-78384949D01*
X150992287Y-78278390D01*
X150984556Y-78267749D01*
X150871971Y-78112786D01*
X150727217Y-77968032D01*
X150727212Y-77968028D01*
X150633051Y-77899616D01*
X150590385Y-77844286D01*
X150584406Y-77774673D01*
X150617012Y-77712878D01*
X150666933Y-77681592D01*
X150749117Y-77654359D01*
X150749124Y-77654356D01*
X150898345Y-77562315D01*
X151022315Y-77438345D01*
X151114356Y-77289124D01*
X151114358Y-77289119D01*
X151169505Y-77122697D01*
X151169506Y-77122690D01*
X151179999Y-77019986D01*
X151180000Y-77019973D01*
X151180000Y-76670000D01*
X150195686Y-76670000D01*
X150200080Y-76665606D01*
X150252741Y-76574394D01*
X150280000Y-76472661D01*
X150280000Y-76367339D01*
X150252741Y-76265606D01*
X150200080Y-76174394D01*
X150195686Y-76170000D01*
X151179999Y-76170000D01*
X151179999Y-75820028D01*
X151179998Y-75820013D01*
X151169505Y-75717302D01*
X151114358Y-75550880D01*
X151114356Y-75550875D01*
X151022315Y-75401654D01*
X150898345Y-75277684D01*
X150749124Y-75185643D01*
X150749119Y-75185641D01*
X150582697Y-75130494D01*
X150582690Y-75130493D01*
X150479986Y-75120000D01*
X150130000Y-75120000D01*
X150130000Y-76104314D01*
X150125606Y-76099920D01*
X150034394Y-76047259D01*
X149932661Y-76020000D01*
X149827339Y-76020000D01*
X149725606Y-76047259D01*
X149634394Y-76099920D01*
X149630000Y-76104314D01*
X149630000Y-75120000D01*
X149280028Y-75120000D01*
X149280012Y-75120001D01*
X149177302Y-75130494D01*
X149010880Y-75185641D01*
X149010875Y-75185643D01*
X148861654Y-75277684D01*
X148737684Y-75401654D01*
X148645643Y-75550875D01*
X148645641Y-75550880D01*
X148590494Y-75717302D01*
X148590493Y-75717309D01*
X148580000Y-75820013D01*
X148580000Y-76170000D01*
X149564314Y-76170000D01*
X149559920Y-76174394D01*
X149507259Y-76265606D01*
X149480000Y-76367339D01*
X149480000Y-76472661D01*
X149507259Y-76574394D01*
X149559920Y-76665606D01*
X149564314Y-76670000D01*
X148580001Y-76670000D01*
X148580001Y-77019986D01*
X148590494Y-77122697D01*
X148645641Y-77289119D01*
X148645643Y-77289124D01*
X148737684Y-77438345D01*
X148861654Y-77562315D01*
X149010875Y-77654356D01*
X149010882Y-77654359D01*
X149093067Y-77681592D01*
X149150512Y-77721364D01*
X149177336Y-77785880D01*
X149165021Y-77854656D01*
X149126949Y-77899616D01*
X149032787Y-77968028D01*
X149032782Y-77968032D01*
X148888028Y-78112786D01*
X148767715Y-78278386D01*
X148674781Y-78460776D01*
X148611522Y-78655465D01*
X148579500Y-78857648D01*
X148579500Y-79062351D01*
X148588318Y-79118026D01*
X148579363Y-79187320D01*
X148553526Y-79225105D01*
X145417047Y-82361584D01*
X145404018Y-82381084D01*
X145391046Y-82400500D01*
X145362884Y-82442646D01*
X145334914Y-82484507D01*
X145278343Y-82621082D01*
X145278340Y-82621092D01*
X145249500Y-82766079D01*
X145249500Y-82766082D01*
X145249500Y-85073918D01*
X145249500Y-85073920D01*
X145249499Y-85073920D01*
X145278340Y-85218907D01*
X145278343Y-85218917D01*
X145334914Y-85355492D01*
X145367812Y-85404727D01*
X145367813Y-85404730D01*
X145417046Y-85478414D01*
X145417052Y-85478421D01*
X148046548Y-88107916D01*
X148080033Y-88169239D01*
X148075049Y-88238931D01*
X148033177Y-88294864D01*
X147978266Y-88318070D01*
X147908880Y-88329060D01*
X147729163Y-88387454D01*
X147560800Y-88473240D01*
X147473579Y-88536610D01*
X147407927Y-88584310D01*
X147407925Y-88584312D01*
X147407924Y-88584312D01*
X147274312Y-88717924D01*
X147274312Y-88717925D01*
X147274310Y-88717927D01*
X147226610Y-88783579D01*
X147163240Y-88870800D01*
X147077454Y-89039163D01*
X147019059Y-89218881D01*
X146989500Y-89405513D01*
X146989500Y-89594486D01*
X147019059Y-89781118D01*
X147077454Y-89960836D01*
X147140865Y-90085286D01*
X147163240Y-90129199D01*
X147274310Y-90282073D01*
X147407927Y-90415690D01*
X147560801Y-90526760D01*
X147620851Y-90557357D01*
X147729163Y-90612545D01*
X147729165Y-90612545D01*
X147729168Y-90612547D01*
X147825497Y-90643846D01*
X147908881Y-90670940D01*
X148095514Y-90700500D01*
X148095519Y-90700500D01*
X148284486Y-90700500D01*
X148471118Y-90670940D01*
X148650832Y-90612547D01*
X148819199Y-90526760D01*
X148972073Y-90415690D01*
X149105690Y-90282073D01*
X149216760Y-90129199D01*
X149302547Y-89960832D01*
X149360940Y-89781118D01*
X149371929Y-89711730D01*
X149401857Y-89648599D01*
X149461169Y-89611667D01*
X149531031Y-89612665D01*
X149582083Y-89643450D01*
X152167049Y-92228416D01*
X152271584Y-92332951D01*
X152271587Y-92332953D01*
X152271588Y-92332954D01*
X152394494Y-92415077D01*
X152394496Y-92415078D01*
X152394505Y-92415084D01*
X152432259Y-92430722D01*
X152531088Y-92471659D01*
X152647241Y-92494763D01*
X152671578Y-92499604D01*
X152676081Y-92500500D01*
X152676082Y-92500500D01*
X152676083Y-92500500D01*
X152823918Y-92500500D01*
X162127369Y-92500500D01*
X162194408Y-92520185D01*
X162227685Y-92551613D01*
X162355483Y-92727510D01*
X162522490Y-92894517D01*
X162713567Y-93033343D01*
X162812991Y-93084002D01*
X162924003Y-93140566D01*
X162924005Y-93140566D01*
X162924008Y-93140568D01*
X163044412Y-93179689D01*
X163148631Y-93213553D01*
X163381903Y-93250500D01*
X163381908Y-93250500D01*
X163618097Y-93250500D01*
X163851368Y-93213553D01*
X164075992Y-93140568D01*
X164286433Y-93033343D01*
X164477510Y-92894517D01*
X164644517Y-92727510D01*
X164783343Y-92536433D01*
X164890568Y-92325992D01*
X164963553Y-92101368D01*
X164999485Y-91874503D01*
X165000500Y-91868097D01*
X165000500Y-91631902D01*
X164963553Y-91398631D01*
X164890566Y-91174003D01*
X164834002Y-91062991D01*
X164783343Y-90963567D01*
X164644517Y-90772490D01*
X164477510Y-90605483D01*
X164286433Y-90466657D01*
X164194646Y-90419889D01*
X164075996Y-90359433D01*
X163851368Y-90286446D01*
X163618097Y-90249500D01*
X163618092Y-90249500D01*
X163381908Y-90249500D01*
X163381903Y-90249500D01*
X163148631Y-90286446D01*
X162924003Y-90359433D01*
X162713566Y-90466657D01*
X162627181Y-90529420D01*
X162522490Y-90605483D01*
X162522488Y-90605485D01*
X162522487Y-90605485D01*
X162355485Y-90772487D01*
X162355485Y-90772488D01*
X162355483Y-90772490D01*
X162238168Y-90933960D01*
X162227687Y-90948386D01*
X162172357Y-90991051D01*
X162127369Y-90999500D01*
X153112229Y-90999500D01*
X153045190Y-90979815D01*
X153024548Y-90963181D01*
X146786819Y-84725451D01*
X146753334Y-84664128D01*
X146750500Y-84637770D01*
X146750500Y-83202228D01*
X146770185Y-83135189D01*
X146786814Y-83114552D01*
X148369067Y-81532298D01*
X148430388Y-81498815D01*
X148500080Y-81503799D01*
X148556013Y-81545671D01*
X148579219Y-81600582D01*
X148611523Y-81804535D01*
X148674781Y-81999223D01*
X148767715Y-82181613D01*
X148888028Y-82347213D01*
X149032786Y-82491971D01*
X149187749Y-82604556D01*
X149198390Y-82612287D01*
X149289840Y-82658883D01*
X149291080Y-82659515D01*
X149341876Y-82707490D01*
X149358671Y-82775311D01*
X149336134Y-82841446D01*
X149291080Y-82880485D01*
X149198386Y-82927715D01*
X149032786Y-83048028D01*
X148888028Y-83192786D01*
X148767715Y-83358386D01*
X148674781Y-83540776D01*
X148611522Y-83735465D01*
X148579500Y-83937648D01*
X148579500Y-84142351D01*
X148611522Y-84344534D01*
X148674781Y-84539223D01*
X148707560Y-84603554D01*
X148764816Y-84715925D01*
X148767715Y-84721613D01*
X148888028Y-84887213D01*
X149032786Y-85031971D01*
X149152875Y-85119219D01*
X149198390Y-85152287D01*
X149314607Y-85211503D01*
X149380776Y-85245218D01*
X149380778Y-85245218D01*
X149380781Y-85245220D01*
X149485137Y-85279127D01*
X149575465Y-85308477D01*
X149659564Y-85321797D01*
X149777648Y-85340500D01*
X149777649Y-85340500D01*
X149982350Y-85340500D01*
X149982352Y-85340500D01*
X150038026Y-85331681D01*
X150107318Y-85340635D01*
X150145105Y-85366473D01*
X154656181Y-89877549D01*
X154686430Y-89926909D01*
X154697453Y-89960833D01*
X154697455Y-89960836D01*
X154783240Y-90129199D01*
X154894310Y-90282073D01*
X155027927Y-90415690D01*
X155180801Y-90526760D01*
X155240851Y-90557357D01*
X155349163Y-90612545D01*
X155349165Y-90612545D01*
X155349168Y-90612547D01*
X155445497Y-90643846D01*
X155528881Y-90670940D01*
X155715514Y-90700500D01*
X155715519Y-90700500D01*
X155904486Y-90700500D01*
X156091118Y-90670940D01*
X156270832Y-90612547D01*
X156439199Y-90526760D01*
X156592073Y-90415690D01*
X156725690Y-90282073D01*
X156836760Y-90129199D01*
X156922547Y-89960832D01*
X156980940Y-89781118D01*
X157001929Y-89648599D01*
X157010500Y-89594486D01*
X157010500Y-89405513D01*
X156980940Y-89218881D01*
X156922545Y-89039163D01*
X156836759Y-88870800D01*
X156725690Y-88717927D01*
X156592073Y-88584310D01*
X156439199Y-88473240D01*
X156270836Y-88387454D01*
X156091118Y-88329059D01*
X155904486Y-88299500D01*
X155904481Y-88299500D01*
X155715519Y-88299500D01*
X155715514Y-88299500D01*
X155528880Y-88329060D01*
X155528877Y-88329060D01*
X155375887Y-88378770D01*
X155306046Y-88380765D01*
X155249888Y-88348520D01*
X151206473Y-84305105D01*
X151172988Y-84243782D01*
X151171681Y-84198027D01*
X151180500Y-84142352D01*
X151180500Y-83937648D01*
X151148477Y-83735466D01*
X151128569Y-83674197D01*
X151085218Y-83540776D01*
X151046010Y-83463828D01*
X150992287Y-83358390D01*
X150964032Y-83319500D01*
X150871971Y-83192786D01*
X150727213Y-83048028D01*
X150561614Y-82927715D01*
X150555006Y-82924348D01*
X150468917Y-82880483D01*
X150418123Y-82832511D01*
X150401328Y-82764690D01*
X150423865Y-82698555D01*
X150468917Y-82659516D01*
X150561610Y-82612287D01*
X150582770Y-82596913D01*
X150727213Y-82491971D01*
X150727215Y-82491968D01*
X150727219Y-82491966D01*
X150871966Y-82347219D01*
X150871968Y-82347215D01*
X150871971Y-82347213D01*
X150924732Y-82274590D01*
X150992287Y-82181610D01*
X151085220Y-81999219D01*
X151148477Y-81804534D01*
X151180500Y-81602352D01*
X151180500Y-81397648D01*
X151171681Y-81341971D01*
X151180635Y-81272679D01*
X151206468Y-81234897D01*
X151443549Y-80997816D01*
X151504871Y-80964334D01*
X151531229Y-80961500D01*
X156136872Y-80961500D01*
X156203911Y-80981185D01*
X156249666Y-81033989D01*
X156259610Y-81103147D01*
X156254803Y-81123819D01*
X156231522Y-81195465D01*
X156199500Y-81397648D01*
X156199500Y-81602351D01*
X156231522Y-81804534D01*
X156294781Y-81999223D01*
X156387715Y-82181613D01*
X156508028Y-82347213D01*
X156652786Y-82491971D01*
X156807749Y-82604556D01*
X156818390Y-82612287D01*
X156909840Y-82658883D01*
X156911080Y-82659515D01*
X156961876Y-82707490D01*
X156978671Y-82775311D01*
X156956134Y-82841446D01*
X156911080Y-82880485D01*
X156818386Y-82927715D01*
X156652786Y-83048028D01*
X156508028Y-83192786D01*
X156387715Y-83358386D01*
X156294781Y-83540776D01*
X156231522Y-83735465D01*
X156199500Y-83937648D01*
X156199500Y-84142351D01*
X156231522Y-84344534D01*
X156294781Y-84539223D01*
X156327560Y-84603554D01*
X156384816Y-84715925D01*
X156387715Y-84721613D01*
X156508028Y-84887213D01*
X156652786Y-85031971D01*
X156772875Y-85119219D01*
X156818390Y-85152287D01*
X156934607Y-85211503D01*
X157000776Y-85245218D01*
X157000778Y-85245218D01*
X157000781Y-85245220D01*
X157105137Y-85279127D01*
X157195465Y-85308477D01*
X157279564Y-85321797D01*
X157397648Y-85340500D01*
X157397649Y-85340500D01*
X157602351Y-85340500D01*
X157602352Y-85340500D01*
X157804534Y-85308477D01*
X157804539Y-85308475D01*
X157804541Y-85308475D01*
X157807638Y-85307469D01*
X157807640Y-85307468D01*
X157850317Y-85293600D01*
X157999219Y-85245220D01*
X158181610Y-85152287D01*
X158289477Y-85073918D01*
X158347213Y-85031971D01*
X158347215Y-85031968D01*
X158347219Y-85031966D01*
X158491966Y-84887219D01*
X158491968Y-84887215D01*
X158491971Y-84887213D01*
X158544732Y-84814590D01*
X158612287Y-84721610D01*
X158705220Y-84539219D01*
X158768477Y-84344534D01*
X158800500Y-84142352D01*
X158800500Y-84131947D01*
X162000000Y-84131947D01*
X162000000Y-84368052D01*
X162036934Y-84601247D01*
X162109897Y-84825802D01*
X162217087Y-85036174D01*
X162277338Y-85119104D01*
X162277340Y-85119105D01*
X163017037Y-84379408D01*
X163034075Y-84442993D01*
X163099901Y-84557007D01*
X163192993Y-84650099D01*
X163307007Y-84715925D01*
X163370590Y-84732962D01*
X162630893Y-85472658D01*
X162713828Y-85532914D01*
X162924197Y-85640102D01*
X163148752Y-85713065D01*
X163148751Y-85713065D01*
X163381948Y-85750000D01*
X163618052Y-85750000D01*
X163851247Y-85713065D01*
X164075802Y-85640102D01*
X164286163Y-85532918D01*
X164286169Y-85532914D01*
X164369104Y-85472658D01*
X164369105Y-85472658D01*
X163629408Y-84732962D01*
X163692993Y-84715925D01*
X163807007Y-84650099D01*
X163900099Y-84557007D01*
X163965925Y-84442993D01*
X163982962Y-84379408D01*
X164722658Y-85119105D01*
X164722658Y-85119104D01*
X164782914Y-85036169D01*
X164782918Y-85036163D01*
X164890102Y-84825802D01*
X164963065Y-84601247D01*
X165000000Y-84368052D01*
X165000000Y-84131947D01*
X164963065Y-83898752D01*
X164890102Y-83674197D01*
X164782914Y-83463828D01*
X164722658Y-83380894D01*
X164722658Y-83380893D01*
X163982962Y-84120590D01*
X163965925Y-84057007D01*
X163900099Y-83942993D01*
X163807007Y-83849901D01*
X163692993Y-83784075D01*
X163629409Y-83767037D01*
X164369105Y-83027340D01*
X164369104Y-83027338D01*
X164286174Y-82967087D01*
X164075802Y-82859897D01*
X163851247Y-82786934D01*
X163851248Y-82786934D01*
X163618052Y-82750000D01*
X163381948Y-82750000D01*
X163148752Y-82786934D01*
X162924197Y-82859897D01*
X162713830Y-82967084D01*
X162630894Y-83027340D01*
X163370591Y-83767037D01*
X163307007Y-83784075D01*
X163192993Y-83849901D01*
X163099901Y-83942993D01*
X163034075Y-84057007D01*
X163017037Y-84120591D01*
X162277340Y-83380894D01*
X162217084Y-83463830D01*
X162109897Y-83674197D01*
X162036934Y-83898752D01*
X162000000Y-84131947D01*
X158800500Y-84131947D01*
X158800500Y-83937648D01*
X158768477Y-83735466D01*
X158748569Y-83674197D01*
X158705218Y-83540776D01*
X158666010Y-83463828D01*
X158612287Y-83358390D01*
X158584032Y-83319500D01*
X158491971Y-83192786D01*
X158347213Y-83048028D01*
X158181614Y-82927715D01*
X158175006Y-82924348D01*
X158088917Y-82880483D01*
X158038123Y-82832511D01*
X158021328Y-82764690D01*
X158043865Y-82698555D01*
X158088917Y-82659516D01*
X158181610Y-82612287D01*
X158202770Y-82596913D01*
X158347213Y-82491971D01*
X158347215Y-82491968D01*
X158347219Y-82491966D01*
X158491966Y-82347219D01*
X158491968Y-82347215D01*
X158491971Y-82347213D01*
X158544732Y-82274590D01*
X158612287Y-82181610D01*
X158705220Y-81999219D01*
X158768477Y-81804534D01*
X158800500Y-81602352D01*
X158800500Y-81397648D01*
X158780707Y-81272679D01*
X158768477Y-81195465D01*
X158745197Y-81123819D01*
X158743201Y-81053978D01*
X158779281Y-80994145D01*
X158841982Y-80963316D01*
X158863128Y-80961500D01*
X172017920Y-80961500D01*
X172115462Y-80942096D01*
X172162913Y-80932658D01*
X172299495Y-80876084D01*
X172299495Y-80876083D01*
X172299881Y-80875924D01*
X172366731Y-80868012D01*
X172508713Y-80890500D01*
X172508714Y-80890500D01*
X172721286Y-80890500D01*
X172721287Y-80890500D01*
X172931243Y-80857246D01*
X173133412Y-80791557D01*
X173319207Y-80696889D01*
X173387874Y-80683994D01*
X173452614Y-80710270D01*
X173492872Y-80767376D01*
X173499500Y-80807375D01*
X173499500Y-90419889D01*
X173479815Y-90486928D01*
X173427011Y-90532683D01*
X173357853Y-90542627D01*
X173300014Y-90518265D01*
X173151830Y-90404561D01*
X173151829Y-90404560D01*
X173151826Y-90404558D01*
X173065163Y-90354523D01*
X172934466Y-90279064D01*
X172934455Y-90279059D01*
X172702575Y-90183011D01*
X172460126Y-90118047D01*
X172211290Y-90085286D01*
X172211283Y-90085286D01*
X171960289Y-90085286D01*
X171960281Y-90085286D01*
X171711445Y-90118047D01*
X171468996Y-90183011D01*
X171237116Y-90279059D01*
X171237105Y-90279064D01*
X171019741Y-90404561D01*
X170820620Y-90557351D01*
X170820613Y-90557357D01*
X170643143Y-90734827D01*
X170643137Y-90734834D01*
X170490347Y-90933955D01*
X170364850Y-91151319D01*
X170364845Y-91151330D01*
X170268797Y-91383210D01*
X170203833Y-91625659D01*
X170171072Y-91874495D01*
X170171072Y-92125504D01*
X170203833Y-92374340D01*
X170203834Y-92374344D01*
X170229910Y-92471659D01*
X170268797Y-92616789D01*
X170364845Y-92848669D01*
X170364850Y-92848680D01*
X170399858Y-92909314D01*
X170490344Y-93066040D01*
X170490346Y-93066043D01*
X170490347Y-93066044D01*
X170643137Y-93265165D01*
X170643143Y-93265172D01*
X170665790Y-93287819D01*
X170699275Y-93349142D01*
X170694291Y-93418834D01*
X170652419Y-93474767D01*
X170586955Y-93499184D01*
X170578109Y-93499500D01*
X137921891Y-93499500D01*
X137854852Y-93479815D01*
X137809097Y-93427011D01*
X137799153Y-93357853D01*
X137828178Y-93294297D01*
X137834210Y-93287819D01*
X137856856Y-93265172D01*
X137856861Y-93265167D01*
X138009656Y-93066040D01*
X138135153Y-92848673D01*
X138231204Y-92616785D01*
X138296166Y-92374344D01*
X138328928Y-92125497D01*
X138328928Y-91874503D01*
X138296166Y-91625656D01*
X138231204Y-91383215D01*
X138135153Y-91151327D01*
X138135151Y-91151324D01*
X138135149Y-91151319D01*
X138090313Y-91073661D01*
X138009656Y-90933960D01*
X137856861Y-90734833D01*
X137856856Y-90734827D01*
X137679386Y-90557357D01*
X137679379Y-90557351D01*
X137480258Y-90404561D01*
X137480257Y-90404560D01*
X137480254Y-90404558D01*
X137393591Y-90354523D01*
X137262894Y-90279064D01*
X137262883Y-90279059D01*
X137031003Y-90183011D01*
X136788554Y-90118047D01*
X136539718Y-90085286D01*
X136539711Y-90085286D01*
X136288717Y-90085286D01*
X136288709Y-90085286D01*
X136039873Y-90118047D01*
X135797424Y-90183011D01*
X135565544Y-90279059D01*
X135565533Y-90279064D01*
X135348169Y-90404561D01*
X135199986Y-90518265D01*
X135134816Y-90543459D01*
X135066372Y-90529420D01*
X135016382Y-90480606D01*
X135000500Y-90419889D01*
X135000500Y-84517648D01*
X142199500Y-84517648D01*
X142199500Y-84722351D01*
X142231522Y-84924534D01*
X142294781Y-85119223D01*
X142387715Y-85301613D01*
X142508028Y-85467213D01*
X142652786Y-85611971D01*
X142791933Y-85713065D01*
X142818390Y-85732287D01*
X142934607Y-85791503D01*
X143000776Y-85825218D01*
X143000778Y-85825218D01*
X143000781Y-85825220D01*
X143105137Y-85859127D01*
X143195465Y-85888477D01*
X143296557Y-85904488D01*
X143397648Y-85920500D01*
X143397649Y-85920500D01*
X143602351Y-85920500D01*
X143602352Y-85920500D01*
X143804534Y-85888477D01*
X143999219Y-85825220D01*
X144181610Y-85732287D01*
X144308493Y-85640102D01*
X144347213Y-85611971D01*
X144347215Y-85611968D01*
X144347219Y-85611966D01*
X144491966Y-85467219D01*
X144491968Y-85467215D01*
X144491971Y-85467213D01*
X144544732Y-85394590D01*
X144612287Y-85301610D01*
X144705220Y-85119219D01*
X144768477Y-84924534D01*
X144800500Y-84722352D01*
X144800500Y-84517648D01*
X144768477Y-84315466D01*
X144750594Y-84260429D01*
X144730318Y-84198024D01*
X144705220Y-84120781D01*
X144705218Y-84120778D01*
X144705218Y-84120776D01*
X144671503Y-84054607D01*
X144612287Y-83938390D01*
X144547997Y-83849901D01*
X144491971Y-83772786D01*
X144347213Y-83628028D01*
X144181613Y-83507715D01*
X144181612Y-83507714D01*
X144181610Y-83507713D01*
X144095481Y-83463828D01*
X143999223Y-83414781D01*
X143804534Y-83351522D01*
X143629995Y-83323878D01*
X143602352Y-83319500D01*
X143397648Y-83319500D01*
X143373329Y-83323351D01*
X143195465Y-83351522D01*
X143000776Y-83414781D01*
X142818386Y-83507715D01*
X142652786Y-83628028D01*
X142508028Y-83772786D01*
X142387715Y-83938386D01*
X142294781Y-84120776D01*
X142231522Y-84315465D01*
X142199500Y-84517648D01*
X135000500Y-84517648D01*
X135000500Y-76052155D01*
X135560000Y-76052155D01*
X135560000Y-76750000D01*
X136584722Y-76750000D01*
X136540667Y-76826306D01*
X136510000Y-76940756D01*
X136510000Y-77059244D01*
X136540667Y-77173694D01*
X136584722Y-77250000D01*
X135560000Y-77250000D01*
X135560000Y-77947844D01*
X135566401Y-78007372D01*
X135566403Y-78007379D01*
X135616645Y-78142086D01*
X135616649Y-78142093D01*
X135702809Y-78257187D01*
X135702812Y-78257190D01*
X135817906Y-78343350D01*
X135817913Y-78343354D01*
X135952620Y-78393596D01*
X135952627Y-78393598D01*
X136012155Y-78399999D01*
X136012172Y-78400000D01*
X136710000Y-78400000D01*
X136710000Y-77375277D01*
X136786306Y-77419333D01*
X136900756Y-77450000D01*
X137019244Y-77450000D01*
X137133694Y-77419333D01*
X137210000Y-77375277D01*
X137210000Y-78400000D01*
X137907828Y-78400000D01*
X137907844Y-78399999D01*
X137967372Y-78393598D01*
X137967379Y-78393596D01*
X138102086Y-78343354D01*
X138102093Y-78343350D01*
X138217187Y-78257190D01*
X138217190Y-78257187D01*
X138303350Y-78142093D01*
X138303354Y-78142086D01*
X138333213Y-78062031D01*
X138375084Y-78006097D01*
X138440548Y-77981680D01*
X138508821Y-77996531D01*
X138537076Y-78017683D01*
X138587636Y-78068243D01*
X138587641Y-78068247D01*
X138743192Y-78181260D01*
X138765978Y-78197815D01*
X138871452Y-78251557D01*
X138962393Y-78297895D01*
X138962396Y-78297896D01*
X139067221Y-78331955D01*
X139172049Y-78366015D01*
X139389778Y-78400500D01*
X139389779Y-78400500D01*
X139610221Y-78400500D01*
X139610222Y-78400500D01*
X139827951Y-78366015D01*
X140037606Y-78297895D01*
X140234022Y-78197815D01*
X140412365Y-78068242D01*
X140568242Y-77912365D01*
X140697815Y-77734022D01*
X140797895Y-77537606D01*
X140866015Y-77327951D01*
X140900500Y-77110222D01*
X140900500Y-76889778D01*
X140866015Y-76672049D01*
X140831955Y-76567221D01*
X140797896Y-76462396D01*
X140797895Y-76462395D01*
X140797895Y-76462394D01*
X140766095Y-76399983D01*
X142199500Y-76399983D01*
X142199500Y-77600001D01*
X142199501Y-77600018D01*
X142210000Y-77702796D01*
X142210001Y-77702799D01*
X142265185Y-77869331D01*
X142265187Y-77869336D01*
X142283864Y-77899616D01*
X142357288Y-78018656D01*
X142481344Y-78142712D01*
X142630666Y-78234814D01*
X142797203Y-78289999D01*
X142899991Y-78300500D01*
X144100008Y-78300499D01*
X144202797Y-78289999D01*
X144369334Y-78234814D01*
X144518656Y-78142712D01*
X144642712Y-78018656D01*
X144734814Y-77869334D01*
X144789999Y-77702797D01*
X144800500Y-77600009D01*
X144800499Y-76399992D01*
X144797163Y-76367339D01*
X144789999Y-76297203D01*
X144789998Y-76297200D01*
X144747848Y-76170000D01*
X144734814Y-76130666D01*
X144642712Y-75981344D01*
X144518656Y-75857288D01*
X144369334Y-75765186D01*
X144202797Y-75710001D01*
X144202795Y-75710000D01*
X144100010Y-75699500D01*
X142899998Y-75699500D01*
X142899981Y-75699501D01*
X142797203Y-75710000D01*
X142797200Y-75710001D01*
X142630668Y-75765185D01*
X142630663Y-75765187D01*
X142481342Y-75857289D01*
X142357289Y-75981342D01*
X142265187Y-76130663D01*
X142265186Y-76130666D01*
X142210001Y-76297203D01*
X142210001Y-76297204D01*
X142210000Y-76297204D01*
X142199500Y-76399983D01*
X140766095Y-76399983D01*
X140697815Y-76265978D01*
X140631276Y-76174394D01*
X140568247Y-76087641D01*
X140568243Y-76087636D01*
X140412363Y-75931756D01*
X140412358Y-75931752D01*
X140234025Y-75802187D01*
X140234024Y-75802186D01*
X140234022Y-75802185D01*
X140138179Y-75753350D01*
X140037606Y-75702104D01*
X140037603Y-75702103D01*
X139827952Y-75633985D01*
X139719086Y-75616742D01*
X139610222Y-75599500D01*
X139389778Y-75599500D01*
X139317201Y-75610995D01*
X139172047Y-75633985D01*
X138962396Y-75702103D01*
X138962393Y-75702104D01*
X138765974Y-75802187D01*
X138587641Y-75931752D01*
X138587636Y-75931756D01*
X138537075Y-75982317D01*
X138475752Y-76015801D01*
X138406060Y-76010816D01*
X138350127Y-75968945D01*
X138333213Y-75937968D01*
X138303354Y-75857913D01*
X138303350Y-75857906D01*
X138217190Y-75742812D01*
X138217187Y-75742809D01*
X138102093Y-75656649D01*
X138102086Y-75656645D01*
X137967379Y-75606403D01*
X137967372Y-75606401D01*
X137907844Y-75600000D01*
X137210000Y-75600000D01*
X137210000Y-76624722D01*
X137133694Y-76580667D01*
X137019244Y-76550000D01*
X136900756Y-76550000D01*
X136786306Y-76580667D01*
X136710000Y-76624722D01*
X136710000Y-75600000D01*
X136012155Y-75600000D01*
X135952627Y-75606401D01*
X135952620Y-75606403D01*
X135817913Y-75656645D01*
X135817906Y-75656649D01*
X135702812Y-75742809D01*
X135702809Y-75742812D01*
X135616649Y-75857906D01*
X135616645Y-75857913D01*
X135566403Y-75992620D01*
X135566401Y-75992627D01*
X135560000Y-76052155D01*
X135000500Y-76052155D01*
X135000500Y-72905513D01*
X159299500Y-72905513D01*
X159299500Y-73094486D01*
X159329059Y-73281118D01*
X159387454Y-73460836D01*
X159439079Y-73562155D01*
X159473240Y-73629199D01*
X159584310Y-73782073D01*
X159717927Y-73915690D01*
X159870801Y-74026760D01*
X159935844Y-74059901D01*
X160039163Y-74112545D01*
X160039165Y-74112545D01*
X160039168Y-74112547D01*
X160135497Y-74143846D01*
X160218881Y-74170940D01*
X160405514Y-74200500D01*
X160405519Y-74200500D01*
X160594486Y-74200500D01*
X160781118Y-74170940D01*
X160960832Y-74112547D01*
X161129199Y-74026760D01*
X161282073Y-73915690D01*
X161415690Y-73782073D01*
X161526760Y-73629199D01*
X161612547Y-73460832D01*
X161670940Y-73281118D01*
X161689070Y-73166649D01*
X161700500Y-73094486D01*
X161700500Y-72905513D01*
X166919500Y-72905513D01*
X166919500Y-73094486D01*
X166949059Y-73281118D01*
X167007454Y-73460836D01*
X167059079Y-73562155D01*
X167093240Y-73629199D01*
X167204310Y-73782073D01*
X167337927Y-73915690D01*
X167490801Y-74026760D01*
X167555844Y-74059901D01*
X167659163Y-74112545D01*
X167659165Y-74112545D01*
X167659168Y-74112547D01*
X167755497Y-74143846D01*
X167838881Y-74170940D01*
X168025514Y-74200500D01*
X168025519Y-74200500D01*
X168214486Y-74200500D01*
X168401118Y-74170940D01*
X168580832Y-74112547D01*
X168749199Y-74026760D01*
X168902073Y-73915690D01*
X169035690Y-73782073D01*
X169146760Y-73629199D01*
X169193770Y-73536934D01*
X169211288Y-73502556D01*
X169211289Y-73502554D01*
X169232544Y-73460839D01*
X169232544Y-73460835D01*
X169232547Y-73460832D01*
X169290940Y-73281118D01*
X169309070Y-73166649D01*
X169320500Y-73094486D01*
X169320500Y-72905513D01*
X169290940Y-72718881D01*
X169232545Y-72539163D01*
X169146759Y-72370800D01*
X169035690Y-72217927D01*
X168902073Y-72084310D01*
X168749199Y-71973240D01*
X168580836Y-71887454D01*
X168401118Y-71829059D01*
X168214486Y-71799500D01*
X168214481Y-71799500D01*
X168025519Y-71799500D01*
X168025514Y-71799500D01*
X167838881Y-71829059D01*
X167659163Y-71887454D01*
X167490800Y-71973240D01*
X167403579Y-72036610D01*
X167337927Y-72084310D01*
X167337925Y-72084312D01*
X167337924Y-72084312D01*
X167204312Y-72217924D01*
X167204312Y-72217925D01*
X167204310Y-72217927D01*
X167156610Y-72283579D01*
X167093240Y-72370800D01*
X167007454Y-72539163D01*
X166949059Y-72718881D01*
X166919500Y-72905513D01*
X161700500Y-72905513D01*
X161670940Y-72718881D01*
X161612545Y-72539163D01*
X161526759Y-72370800D01*
X161415690Y-72217927D01*
X161282073Y-72084310D01*
X161129199Y-71973240D01*
X160960836Y-71887454D01*
X160781118Y-71829059D01*
X160594486Y-71799500D01*
X160594481Y-71799500D01*
X160405519Y-71799500D01*
X160405514Y-71799500D01*
X160218881Y-71829059D01*
X160039163Y-71887454D01*
X159870800Y-71973240D01*
X159783579Y-72036610D01*
X159717927Y-72084310D01*
X159717925Y-72084312D01*
X159717924Y-72084312D01*
X159584312Y-72217924D01*
X159584312Y-72217925D01*
X159584310Y-72217927D01*
X159536610Y-72283579D01*
X159473240Y-72370800D01*
X159387454Y-72539163D01*
X159329059Y-72718881D01*
X159299500Y-72905513D01*
X135000500Y-72905513D01*
X135000500Y-71474499D01*
X135020185Y-71407460D01*
X135072989Y-71361705D01*
X135124500Y-71350499D01*
X136397871Y-71350499D01*
X136397872Y-71350499D01*
X136457483Y-71344091D01*
X136592331Y-71293796D01*
X136707546Y-71207546D01*
X136793796Y-71092331D01*
X136844091Y-70957483D01*
X136850500Y-70897873D01*
X136850499Y-70215513D01*
X140299500Y-70215513D01*
X140299500Y-70404486D01*
X140329059Y-70591118D01*
X140387454Y-70770836D01*
X140473240Y-70939199D01*
X140584310Y-71092073D01*
X140717927Y-71225690D01*
X140870801Y-71336760D01*
X140950347Y-71377290D01*
X141039163Y-71422545D01*
X141039165Y-71422545D01*
X141039168Y-71422547D01*
X141135497Y-71453846D01*
X141218881Y-71480940D01*
X141405514Y-71510500D01*
X141405519Y-71510500D01*
X141594486Y-71510500D01*
X141781118Y-71480940D01*
X141800941Y-71474499D01*
X141960832Y-71422547D01*
X142129199Y-71336760D01*
X142282073Y-71225690D01*
X142415690Y-71092073D01*
X142526760Y-70939199D01*
X142612547Y-70770832D01*
X142670940Y-70591118D01*
X142700500Y-70404486D01*
X142700500Y-70215513D01*
X142670940Y-70028881D01*
X142612545Y-69849163D01*
X142526759Y-69680800D01*
X142415690Y-69527927D01*
X142282073Y-69394310D01*
X142129199Y-69283240D01*
X141960836Y-69197454D01*
X141781118Y-69139059D01*
X141594486Y-69109500D01*
X141594481Y-69109500D01*
X141405519Y-69109500D01*
X141405514Y-69109500D01*
X141218881Y-69139059D01*
X141039163Y-69197454D01*
X140870800Y-69283240D01*
X140783579Y-69346610D01*
X140717927Y-69394310D01*
X140717925Y-69394312D01*
X140717924Y-69394312D01*
X140584312Y-69527924D01*
X140584312Y-69527925D01*
X140584310Y-69527927D01*
X140536610Y-69593579D01*
X140473240Y-69680800D01*
X140387454Y-69849163D01*
X140329059Y-70028881D01*
X140299500Y-70215513D01*
X136850499Y-70215513D01*
X136850499Y-69849168D01*
X136850499Y-69102129D01*
X136850498Y-69102123D01*
X136844091Y-69042516D01*
X136793797Y-68907671D01*
X136793793Y-68907664D01*
X136707547Y-68792455D01*
X136707544Y-68792452D01*
X136592335Y-68706206D01*
X136592328Y-68706202D01*
X136457482Y-68655908D01*
X136457483Y-68655908D01*
X136397883Y-68649501D01*
X136397881Y-68649500D01*
X136397873Y-68649500D01*
X136397865Y-68649500D01*
X136387309Y-68649500D01*
X136320270Y-68629815D01*
X136299628Y-68613181D01*
X135629409Y-67942962D01*
X135692993Y-67925925D01*
X135807007Y-67860099D01*
X135900099Y-67767007D01*
X135965925Y-67652993D01*
X135982962Y-67589408D01*
X136615270Y-68221717D01*
X136615270Y-68221716D01*
X136654622Y-68167554D01*
X136751095Y-67978217D01*
X136816757Y-67776130D01*
X136816757Y-67776127D01*
X136850000Y-67566246D01*
X136850000Y-67353753D01*
X136816757Y-67143872D01*
X136816757Y-67143869D01*
X136751095Y-66941782D01*
X136654624Y-66752449D01*
X136615270Y-66698282D01*
X136615269Y-66698282D01*
X135982962Y-67330590D01*
X135965925Y-67267007D01*
X135900099Y-67152993D01*
X135807007Y-67059901D01*
X135692993Y-66994075D01*
X135629407Y-66977036D01*
X136261716Y-66344728D01*
X136207550Y-66305375D01*
X136018217Y-66208904D01*
X135816129Y-66143242D01*
X135606246Y-66110000D01*
X135393754Y-66110000D01*
X135183870Y-66143242D01*
X135162817Y-66150083D01*
X135092976Y-66152078D01*
X135033144Y-66115997D01*
X135002316Y-66053296D01*
X135000500Y-66032152D01*
X135000500Y-63507677D01*
X135020185Y-63440638D01*
X135072989Y-63394883D01*
X135142147Y-63384939D01*
X135205703Y-63413964D01*
X135212181Y-63419996D01*
X135234827Y-63442642D01*
X135234833Y-63442647D01*
X135433960Y-63595442D01*
X135573661Y-63676099D01*
X135651319Y-63720935D01*
X135651324Y-63720937D01*
X135651327Y-63720939D01*
X135883215Y-63816990D01*
X136125656Y-63881952D01*
X136374503Y-63914714D01*
X136374510Y-63914714D01*
X136625490Y-63914714D01*
X136625497Y-63914714D01*
X136874344Y-63881952D01*
X137116785Y-63816990D01*
X137348673Y-63720939D01*
X137566040Y-63595442D01*
X137765167Y-63442647D01*
X137942647Y-63265167D01*
X138095442Y-63066040D01*
X138220939Y-62848673D01*
X138316990Y-62616785D01*
X138322690Y-62595513D01*
X140299500Y-62595513D01*
X140299500Y-62784486D01*
X140329059Y-62971118D01*
X140387454Y-63150836D01*
X140445708Y-63265165D01*
X140473240Y-63319199D01*
X140584310Y-63472073D01*
X140717927Y-63605690D01*
X140870801Y-63716760D01*
X140950347Y-63757290D01*
X141039163Y-63802545D01*
X141039165Y-63802545D01*
X141039168Y-63802547D01*
X141083613Y-63816988D01*
X141218881Y-63860940D01*
X141405514Y-63890500D01*
X141405519Y-63890500D01*
X141594486Y-63890500D01*
X141781118Y-63860940D01*
X141960832Y-63802547D01*
X142129199Y-63716760D01*
X142282073Y-63605690D01*
X142415690Y-63472073D01*
X142490670Y-63368872D01*
X147999500Y-63368872D01*
X147999500Y-63631127D01*
X148011325Y-63720939D01*
X148033730Y-63891116D01*
X148101602Y-64144418D01*
X148101605Y-64144428D01*
X148201953Y-64386690D01*
X148201958Y-64386700D01*
X148333075Y-64613803D01*
X148492718Y-64821851D01*
X148492726Y-64821860D01*
X148678140Y-65007274D01*
X148678148Y-65007281D01*
X148886196Y-65166924D01*
X149113299Y-65298041D01*
X149113309Y-65298046D01*
X149355571Y-65398394D01*
X149355581Y-65398398D01*
X149608884Y-65466270D01*
X149857188Y-65498960D01*
X149868864Y-65500498D01*
X149868880Y-65500500D01*
X149868887Y-65500500D01*
X150131113Y-65500500D01*
X150131120Y-65500500D01*
X150391116Y-65466270D01*
X150644419Y-65398398D01*
X150886697Y-65298043D01*
X151113803Y-65166924D01*
X151321851Y-65007282D01*
X151321855Y-65007277D01*
X151321860Y-65007274D01*
X151507274Y-64821860D01*
X151507277Y-64821855D01*
X151507282Y-64821851D01*
X151666924Y-64613803D01*
X151798043Y-64386697D01*
X151898398Y-64144419D01*
X151966270Y-63891116D01*
X152000500Y-63631120D01*
X152000500Y-63368880D01*
X152000499Y-63368872D01*
X152999500Y-63368872D01*
X152999500Y-63631127D01*
X153011325Y-63720939D01*
X153033730Y-63891116D01*
X153101602Y-64144418D01*
X153101605Y-64144428D01*
X153201953Y-64386690D01*
X153201958Y-64386700D01*
X153333075Y-64613803D01*
X153492718Y-64821851D01*
X153492726Y-64821860D01*
X153678140Y-65007274D01*
X153678148Y-65007281D01*
X153886196Y-65166924D01*
X154113299Y-65298041D01*
X154113309Y-65298046D01*
X154355571Y-65398394D01*
X154355581Y-65398398D01*
X154608884Y-65466270D01*
X154857188Y-65498960D01*
X154868864Y-65500498D01*
X154868880Y-65500500D01*
X154868887Y-65500500D01*
X155131113Y-65500500D01*
X155131120Y-65500500D01*
X155391116Y-65466270D01*
X155644419Y-65398398D01*
X155886697Y-65298043D01*
X156113803Y-65166924D01*
X156321851Y-65007282D01*
X156321855Y-65007277D01*
X156321860Y-65007274D01*
X156507274Y-64821860D01*
X156507277Y-64821855D01*
X156507282Y-64821851D01*
X156666924Y-64613803D01*
X156798043Y-64386697D01*
X156898398Y-64144419D01*
X156966270Y-63891116D01*
X157000500Y-63631120D01*
X157000500Y-63368880D01*
X156966270Y-63108884D01*
X156898398Y-62855581D01*
X156877788Y-62805824D01*
X156798046Y-62613309D01*
X156798041Y-62613299D01*
X156666924Y-62386196D01*
X156507281Y-62178148D01*
X156507274Y-62178140D01*
X156321860Y-61992726D01*
X156321851Y-61992718D01*
X156268963Y-61952135D01*
X157999500Y-61952135D01*
X157999500Y-65047870D01*
X157999501Y-65047876D01*
X158005908Y-65107483D01*
X158056202Y-65242328D01*
X158056206Y-65242335D01*
X158142452Y-65357544D01*
X158142455Y-65357547D01*
X158257664Y-65443793D01*
X158257671Y-65443797D01*
X158392517Y-65494091D01*
X158392516Y-65494091D01*
X158399444Y-65494835D01*
X158452127Y-65500500D01*
X161547872Y-65500499D01*
X161607483Y-65494091D01*
X161742331Y-65443796D01*
X161857546Y-65357546D01*
X161943796Y-65242331D01*
X161994091Y-65107483D01*
X162000500Y-65047873D01*
X162000499Y-61952128D01*
X161994091Y-61892517D01*
X161987374Y-61874509D01*
X161943797Y-61757671D01*
X161943793Y-61757664D01*
X161857547Y-61642455D01*
X161857544Y-61642452D01*
X161742335Y-61556206D01*
X161742328Y-61556202D01*
X161607482Y-61505908D01*
X161607483Y-61505908D01*
X161547883Y-61499501D01*
X161547881Y-61499500D01*
X161547873Y-61499500D01*
X161547864Y-61499500D01*
X158452129Y-61499500D01*
X158452123Y-61499501D01*
X158392516Y-61505908D01*
X158257671Y-61556202D01*
X158257664Y-61556206D01*
X158142455Y-61642452D01*
X158142452Y-61642455D01*
X158056206Y-61757664D01*
X158056202Y-61757671D01*
X158005908Y-61892517D01*
X157999501Y-61952116D01*
X157999501Y-61952123D01*
X157999500Y-61952135D01*
X156268963Y-61952135D01*
X156113803Y-61833075D01*
X155886700Y-61701958D01*
X155886690Y-61701953D01*
X155644428Y-61601605D01*
X155644421Y-61601603D01*
X155644419Y-61601602D01*
X155391116Y-61533730D01*
X155333339Y-61526123D01*
X155131127Y-61499500D01*
X155131120Y-61499500D01*
X154868880Y-61499500D01*
X154868872Y-61499500D01*
X154637772Y-61529926D01*
X154608884Y-61533730D01*
X154445707Y-61577453D01*
X154355581Y-61601602D01*
X154355571Y-61601605D01*
X154113309Y-61701953D01*
X154113299Y-61701958D01*
X153886196Y-61833075D01*
X153678148Y-61992718D01*
X153492718Y-62178148D01*
X153333075Y-62386196D01*
X153201958Y-62613299D01*
X153201953Y-62613309D01*
X153101605Y-62855571D01*
X153101602Y-62855581D01*
X153033730Y-63108885D01*
X152999500Y-63368872D01*
X152000499Y-63368872D01*
X151966270Y-63108884D01*
X151898398Y-62855581D01*
X151877788Y-62805824D01*
X151798046Y-62613309D01*
X151798041Y-62613299D01*
X151666924Y-62386196D01*
X151507281Y-62178148D01*
X151507274Y-62178140D01*
X151321860Y-61992726D01*
X151321851Y-61992718D01*
X151113803Y-61833075D01*
X150886700Y-61701958D01*
X150886690Y-61701953D01*
X150644428Y-61601605D01*
X150644421Y-61601603D01*
X150644419Y-61601602D01*
X150391116Y-61533730D01*
X150333339Y-61526123D01*
X150131127Y-61499500D01*
X150131120Y-61499500D01*
X149868880Y-61499500D01*
X149868872Y-61499500D01*
X149637772Y-61529926D01*
X149608884Y-61533730D01*
X149445707Y-61577453D01*
X149355581Y-61601602D01*
X149355571Y-61601605D01*
X149113309Y-61701953D01*
X149113299Y-61701958D01*
X148886196Y-61833075D01*
X148678148Y-61992718D01*
X148492718Y-62178148D01*
X148333075Y-62386196D01*
X148201958Y-62613299D01*
X148201953Y-62613309D01*
X148101605Y-62855571D01*
X148101602Y-62855581D01*
X148033730Y-63108885D01*
X147999500Y-63368872D01*
X142490670Y-63368872D01*
X142526760Y-63319199D01*
X142612547Y-63150832D01*
X142670940Y-62971118D01*
X142680729Y-62909314D01*
X142700500Y-62784486D01*
X142700500Y-62595513D01*
X142670940Y-62408881D01*
X142643846Y-62325497D01*
X142612547Y-62229168D01*
X142612545Y-62229165D01*
X142612545Y-62229163D01*
X142559724Y-62125497D01*
X142526760Y-62060801D01*
X142415690Y-61907927D01*
X142282073Y-61774310D01*
X142129199Y-61663240D01*
X141960836Y-61577454D01*
X141781118Y-61519059D01*
X141594486Y-61489500D01*
X141594481Y-61489500D01*
X141405519Y-61489500D01*
X141405514Y-61489500D01*
X141218881Y-61519059D01*
X141039163Y-61577454D01*
X140870800Y-61663240D01*
X140783579Y-61726610D01*
X140717927Y-61774310D01*
X140717925Y-61774312D01*
X140717924Y-61774312D01*
X140584312Y-61907924D01*
X140584312Y-61907925D01*
X140584310Y-61907927D01*
X140552205Y-61952116D01*
X140473240Y-62060800D01*
X140387454Y-62229163D01*
X140329059Y-62408881D01*
X140299500Y-62595513D01*
X138322690Y-62595513D01*
X138381952Y-62374344D01*
X138414714Y-62125497D01*
X138414714Y-61874503D01*
X138381952Y-61625656D01*
X138316990Y-61383215D01*
X138220939Y-61151327D01*
X138220937Y-61151324D01*
X138220935Y-61151319D01*
X138176099Y-61073661D01*
X138095442Y-60933960D01*
X137942647Y-60734833D01*
X137942642Y-60734827D01*
X137919996Y-60712181D01*
X137886511Y-60650858D01*
X137891495Y-60581166D01*
X137933367Y-60525233D01*
X137998831Y-60500816D01*
X138007677Y-60500500D01*
X170492323Y-60500500D01*
X170559362Y-60520185D01*
G37*
%TD.AperFunction*%
%TD*%
M02*
